<?xml version="1.0" encoding="utf-8"?>
<!-- Generator: Adobe Illustrator 16.0.0, SVG Export Plug-In . SVG Version: 6.00 Build 0)  -->
<!DOCTYPE svg PUBLIC "-//W3C//DTD SVG 1.1//EN" "http://www.w3.org/Graphics/SVG/1.1/DTD/svg11.dtd">
<svg version="1.1" id="Layer_1" xmlns="http://www.w3.org/2000/svg" xmlns:xlink="http://www.w3.org/1999/xlink" x="0px" y="0px"
	 width="432px" height="48px" viewBox="0 0 432 48" enable-background="new 0 0 432 48" xml:space="preserve">
<g>
	<g display="none">
		<rect display="inline" fill="#7C7C7C" width="48" height="48"/>
		<rect x="48" display="inline" fill="#7C7C7C" width="48" height="48"/>
		<rect x="96" display="inline" fill="#7C7C7C" width="48" height="48"/>
		<rect x="144" display="inline" fill="#7C7C7C" width="48" height="48"/>
		<rect x="192" display="inline" fill="#7C7C7C" width="48" height="48"/>
		<rect x="240" display="inline" fill="#7C7C7C" width="48" height="48"/>
		<rect x="288" display="inline" fill="#7C7C7C" width="48" height="48"/>
		<rect x="336" display="inline" fill="#7C7C7C" width="48" height="48"/>
		<rect x="384" display="inline" fill="#7C7C7C" width="48" height="48"/>
	</g>
	<g display="none">
		<line display="inline" fill="none" stroke="#00A551" stroke-width="0.1" x1="384" y1="-100" x2="384" y2="148"/>
		<line display="inline" fill="none" stroke="#00A551" stroke-width="0.1" x1="336" y1="-100" x2="336" y2="148"/>
		<line display="inline" fill="none" stroke="#00A551" stroke-width="0.1" x1="336" y1="-100" x2="336" y2="148"/>
		<line display="inline" fill="none" stroke="#00A551" stroke-width="0.1" x1="288" y1="-100" x2="288" y2="148"/>
		<line display="inline" fill="none" stroke="#00A551" stroke-width="0.1" x1="288" y1="-100" x2="288" y2="148"/>
		<line display="inline" fill="none" stroke="#00A551" stroke-width="0.1" x1="240" y1="-100" x2="240" y2="148"/>
		<line display="inline" fill="none" stroke="#00A551" stroke-width="0.1" x1="240" y1="-100" x2="240" y2="148"/>
		<line display="inline" fill="none" stroke="#00A551" stroke-width="0.1" x1="192" y1="-100" x2="192" y2="148"/>
		<line display="inline" fill="none" stroke="#00A551" stroke-width="0.1" x1="192" y1="-100" x2="192" y2="148"/>
		<line display="inline" fill="none" stroke="#00A551" stroke-width="0.1" x1="144" y1="-100" x2="144" y2="148"/>
		<line display="inline" fill="none" stroke="#00A551" stroke-width="0.1" x1="144" y1="-100" x2="144" y2="148"/>
		<line display="inline" fill="none" stroke="#00A551" stroke-width="0.1" x1="96" y1="-100" x2="96" y2="148"/>
		<line display="inline" fill="none" stroke="#00A551" stroke-width="0.1" x1="96" y1="-100" x2="96" y2="148"/>
		<line display="inline" fill="none" stroke="#00A551" stroke-width="0.1" x1="48" y1="-100" x2="48" y2="148"/>
		<line display="inline" fill="none" stroke="#00A551" stroke-width="0.1" x1="48" y1="-100" x2="48" y2="148"/>
		<line display="inline" fill="none" stroke="#00A551" stroke-width="0.1" x1="0" y1="-100" x2="0" y2="148"/>
		<line display="inline" fill="none" stroke="#00A551" stroke-width="0.1" x1="-100" y1="48" x2="484" y2="48"/>
		<line display="inline" fill="none" stroke="#00A551" stroke-width="0.1" x1="-100" y1="0" x2="484" y2="0"/>
	</g>
</g>
<g id="User_3_">
	<path fill="#FFFFFF" d="M90.75,41.03l-1.5-8.795C87.563,26.388,82.357,21.678,72,21.678s-15.687,4.646-17.25,10.558l-1.5,8.795
		c0,1.274,2.981,2.404,7.573,3.106l-0.073,0.765C60.75,46.612,65.787,48,72,48s11.25-1.388,11.25-3.099l-0.073-0.765
		C87.769,43.435,90.75,42.305,90.75,41.03z"/>
	<path fill="#FFFFFF" d="M72,0c-5.386,0-9.75,4.504-9.75,10.064c0,5.559,4.364,10.064,9.75,10.064s9.75-4.506,9.75-10.064
		C81.75,4.504,77.386,0,72,0L72,0z"/>
</g>
<g>
	<g>
		<path fill="#FFFFFF" d="M44,12.857l-9.967-5.998l-2.129,2.93c1.969,1.546,3.455,3.867,4.246,6.964
			c0.837,3.278,0.569,6.293-0.905,9.041c-1.477,2.748-3.807,4.708-7.043,5.88l-4.629,1.702c-0.551,0.205-1.248,0.618-2.103,1.234
			c-0.855,0.617-1.202,1.23-1.047,1.837c0.212,0.831,1.31,0.99,3.294,0.485c0.87-0.223,2.189-0.724,3.949-1.509
			c1.762-0.783,3.089-1.289,3.98-1.518c3.198-0.817,5.887-0.689,8.069,0.381c1.261,0.618,2.278,1.521,3.202,2.769
			c0.186,0.25,0.197,0.28,0.294,0.427c0.244,0.361-0.158,0.509,0.219,1.063C43.924,39.272,44,39.751,44,39.751V12.857z"/>
		<path fill="#FFFFFF" d="M25.686,27.537c2.044-0.521,3.458-1.654,4.243-3.396c0.784-1.74,0.876-3.785,0.276-6.134
			c-0.517-2.024-1.578-3.585-3.186-4.685c-1.605-1.098-3.34-1.41-5.202-0.934c-2.004,0.51-3.458,1.637-4.361,3.377
			c-0.903,1.739-1.097,3.621-0.58,5.645c0.579,2.268,1.671,3.988,3.275,5.164C21.756,27.748,23.601,28.069,25.686,27.537z"/>
		<path fill="#FFFFFF" d="M31.748,39.118c-0.647,0.165-1.779,0.629-3.398,1.384c-1.616,0.761-2.901,1.26-3.853,1.503
			c-4.614,1.18-7.366,0.028-8.256-3.455c-0.274-1.072,0.019-2.182,0.88-3.328c0.86-1.147,2.042-2.116,3.542-2.909
			c-5.123-0.978-8.36-4.118-9.715-9.42c-0.868-3.401-0.408-6.537,1.381-9.408c1.79-2.871,4.424-4.752,7.906-5.642
			c3.198-0.816,5.865-0.796,8.003,0.059l1.731-3.633l-5.544-3.208L4,12.857v23.59l20.426,11.797l13.561-7.829
			C36.984,38.746,34.9,38.313,31.748,39.118z"/>
	</g>
	<g>
		<path fill="#FFFFFF" d="M34.771,5.001l1.819-2.276l0.355-0.444l-3.672-2.036l-0.211,0.444l-1.218,2.554
			C32.912,3.682,33.897,4.275,34.771,5.001z"/>
	</g>
	<g>
		<path fill="#FFFFFF" d="M32.398,7.146l0.991-1.238l0.193-0.242l-1.999-1.109l-0.115,0.242L30.805,6.19
			C31.385,6.428,31.922,6.752,32.398,7.146z"/>
	</g>
	<g>
		<path fill="#FFFFFF" d="M30.932,8.83l0.631-0.789l0.123-0.154l-1.271-0.705L30.34,7.335L29.918,8.22
			C30.288,8.371,30.63,8.578,30.932,8.83z"/>
	</g>
</g>
<g id="Shopping_x5F_Basket_5_">
	<path fill="#FFFFFF" d="M99.854,25.433l1.641,14.385c0.283,1.921,1.755,3.394,3.395,3.394h30.222c1.639,0,3.111-1.473,3.395-3.394
		l1.641-14.385H99.854z M110.222,39.655h-1.777V28.989h1.777V39.655z M115.556,39.655h-1.778V28.989h1.778V39.655z M120.889,39.655
		h-1.777V28.989h1.777V39.655z M126.222,39.655h-1.778V28.989h1.778V39.655z M131.555,39.655h-1.777V28.989h1.777V39.655z"/>
	<path fill="#FFFFFF" d="M130.455,16.545l-8.408-11.756l-1.158,0.828l7.816,10.928h-17.409l7.816-10.928l-1.158-0.828l-8.408,11.756
		H96v1.777h1.306l0.472,3.555c0.063,0.678,0.247,1.262,0.496,1.778h43.452c0.25-0.517,0.434-1.101,0.496-1.778l0.472-3.555H144
		v-1.777H130.455z M107.734,21.521l-1.158-0.828l1.697-2.371h1.751L107.734,21.521z M132.266,21.521l-2.29-3.199h1.751l1.697,2.371
		L132.266,21.521z"/>
</g>
<g id="Certificate_3_">
	<path fill="#FFFFFF" d="M175.2,11.2c-1.731,0-3.2-1.433-3.2-3.2V0h-16c-1.731,0-3.2,1.433-3.2,3.2v33.6c0,1.768,1.469,3.2,3.2,3.2
		h12.8v-3.284c-0.989-1.01-1.6-2.391-1.6-3.916c0-3.094,2.506-5.6,5.6-5.6s5.6,2.506,5.6,5.6c0,1.525-0.611,2.906-1.6,3.916V40h3.2
		c1.731,0,3.2-1.433,3.2-3.2V11.2H175.2z M157.6,12.8h9.6V14.4h-9.6V12.8z M178.4,24h-20.8v-1.6h20.8V24z M178.4,19.2h-20.8V17.6
		h20.8V19.2z"/>
	<path fill="#FFFFFF" d="M175.2,37.854c-0.729,0.347-1.541,0.547-2.4,0.547s-1.672-0.2-2.4-0.547V48l2.4-2.4l2.4,2.4V37.854z"/>
	<path fill="#FFFFFF" d="M173.6,8c0,0.883,0.737,1.6,1.6,1.6h8L173.6,0V8z"/>
	<circle fill="#FFFFFF" cx="172.8" cy="32.8" r="4"/>
</g>
<g id="Map_x5F_Path_3_">
	<path fill="#FFFFFF" d="M211.644,45.261l-0.906-0.904l2.06-2.06l0.906,0.904L211.644,45.261z M215.763,41.141l-0.906-0.903
		l2.061-2.06l0.906,0.903L215.763,41.141z M219.883,37.021l-0.906-0.902l2.06-2.062l0.906,0.905L219.883,37.021z M224.002,32.903
		l-0.906-0.905l2.061-2.059l0.906,0.904L224.002,32.903z"/>
	
		<rect x="227.594" y="26.966" transform="matrix(0.7071 0.7071 -0.7071 0.7071 86.4816 -153.2537)" fill="#FFFFFF" width="1.282" height="1.599"/>
	<path fill="#FFFFFF" d="M228.8,0c-4.419,0-8,3.609-8,8.06c0,1.068,0.237,2.159,0.612,3.094c0.039,0.094,0.085,0.185,0.129,0.274
		L228.8,27.2l7.26-15.772c0.044-0.09,0.089-0.181,0.128-0.274l0.025-0.072c0.375-0.935,0.587-1.953,0.587-3.021
		C236.8,3.609,233.219,0,228.8,0z M228.8,11.2c-1.767,0-3.2-1.433-3.2-3.2s1.434-3.2,3.2-3.2c1.768,0,3.2,1.433,3.2,3.2
		S230.567,11.2,228.8,11.2z"/>
	<path fill="#FFFFFF" d="M208,4.8c-7.068,0-12.8,5.731-12.8,12.8c0,1.699,0.381,3.432,0.981,4.914
		c0.063,0.148,0.134,0.291,0.203,0.437L208,48l11.615-25.05c0.069-0.146,0.141-0.288,0.203-0.437l0.043-0.113
		c0.602-1.484,0.938-3.102,0.938-4.801C220.8,10.531,215.068,4.8,208,4.8z M208,22.721c-2.828,0-5.12-2.293-5.12-5.121
		s2.292-5.12,5.12-5.12s5.12,2.292,5.12,5.12S210.828,22.721,208,22.721z"/>
</g>
<g id="Map_x5F_Pin_1_">
	<path fill="#FFFFFF" d="M264.338,1.422c7.059,0,12.801,5.74,12.801,12.8c0,1.646-0.316,3.261-0.957,4.841l-0.022,0.067
		c-0.04,0.099-0.089,0.192-0.134,0.286l-0.071,0.152l-11.616,25.048l-11.621-25.058l-0.066-0.143
		c-0.045-0.094-0.094-0.188-0.125-0.268c-0.637-1.572-0.988-3.322-0.988-4.927C251.537,7.163,257.279,1.422,264.338,1.422
		 M264.338,0c-7.854,0-14.223,6.367-14.223,14.222c0,1.888,0.424,3.813,1.091,5.46c0.069,0.165,0.149,0.323,0.226,0.484L264.338,48
		l12.906-27.833c0.076-0.161,0.156-0.319,0.226-0.484l0.047-0.127c0.669-1.648,1.044-3.445,1.044-5.333
		C278.561,6.368,272.192,0,264.338,0L264.338,0z"/>
	<path fill="#FFFFFF" d="M264.338,8.534c3.137,0,5.689,2.551,5.689,5.688s-2.553,5.689-5.689,5.689s-5.689-2.552-5.689-5.689
		S261.201,8.534,264.338,8.534 M264.338,7.112c-3.927,0-7.111,3.184-7.111,7.11s3.185,7.11,7.111,7.11s7.111-3.184,7.111-7.11
		S268.265,7.112,264.338,7.112L264.338,7.112z"/>
</g>
<g id="Map_x5F_Pin_3_">
	<path fill="#FFFFFF" d="M312,0c-7.854,0-14.223,6.368-14.223,14.223c0,1.887,0.424,3.813,1.091,5.46
		c0.069,0.165,0.149,0.322,0.226,0.484L312,48l12.906-27.833c0.076-0.162,0.156-0.319,0.226-0.484l0.047-0.127
		c0.669-1.649,1.044-3.446,1.044-5.333C326.223,6.368,319.854,0,312,0z M312,19.911c-3.143,0-5.689-2.546-5.689-5.688
		s2.547-5.689,5.689-5.689s5.689,2.547,5.689,5.689S315.143,19.911,312,19.911z"/>
</g>
<g id="Price_x5F_Tags_1_">
	<path fill="#FFFFFF" d="M374.069,3.311c0.911,0,1.655,0.742,1.655,1.655v11.578c-0.009,0.651-0.264,1.261-0.694,1.691
		l-22.278,21.267c-0.307,0.306-0.724,0.476-1.173,0.476c-0.446,0-0.86-0.168-1.167-0.476l-10.871-10.878
		c-0.309-0.309-0.477-0.726-0.475-1.176c0.002-0.447,0.17-0.861,0.493-1.185L361.112,4c0.465-0.444,1.073-0.69,1.71-0.69H374.069
		 M374.069,1.655h-11.247c-1.122,0-2.136,0.449-2.881,1.175l-21.57,22.28c-1.268,1.268-1.293,3.39,0,4.683l10.87,10.878
		c0.642,0.644,1.49,0.961,2.338,0.961c0.854,0,1.706-0.323,2.344-0.961l22.251-21.239c0.793-0.793,1.192-1.828,1.205-2.868V4.965
		C377.379,3.137,375.897,1.655,374.069,1.655L374.069,1.655z"/>
	<path fill="#FFFFFF" d="M380.689,4.965h-1.655v1.655h1.655c0.912,0,1.655,0.742,1.655,1.655v11.578
		c-0.008,0.651-0.264,1.261-0.693,1.691l-22.278,21.267c-0.308,0.306-0.725,0.476-1.174,0.476c-0.446,0-0.859-0.169-1.167-0.476
		l-1.441-1.443l-0.525,0.501c-0.222,0.222-0.464,0.419-0.723,0.592l1.52,1.521c0.642,0.644,1.49,0.96,2.337,0.96
		c0.855,0,1.707-0.323,2.344-0.96l22.251-21.239c0.794-0.793,1.193-1.828,1.206-2.867V8.276C384,6.448,382.518,4.965,380.689,4.965z
		"/>
	<path fill="#FFFFFF" d="M368.275,8.276c1.369,0,2.483,1.114,2.483,2.483s-1.114,2.482-2.483,2.482
		c-1.368,0-2.482-1.113-2.482-2.482S366.907,8.276,368.275,8.276 M368.275,6.621c-2.285,0-4.138,1.853-4.138,4.138
		c0,2.285,1.853,4.138,4.138,4.138c2.286,0,4.139-1.853,4.139-4.138C372.414,8.473,370.562,6.621,368.275,6.621L368.275,6.621z"/>
</g>
<g id="Camera_2_">
	<path fill="#FFFFFF" d="M428.52,12.944c0,0-6.488,0-7.53,0c-0.931,0-1.396-0.535-1.396-0.535l-2.764-5.438l-0.004,0.01
		c-0.649-0.703-1.571-1.149-2.604-1.149h-12.372c-1.031,0-1.953,0.446-2.604,1.149l-0.003-0.01l-2.764,5.438
		c0,0-0.466,0.535-1.396,0.535c-1.041,0-7.527,0-7.527,0c-1.966,0-3.556,1.592-3.556,3.556v23.111c0,1.963,1.59,3.556,3.556,3.556
		h40.964c1.963,0,3.48-1.593,3.48-3.556V16.5C432,14.537,430.482,12.944,428.52,12.944z M430.223,39.611
		c0,0.979-0.723,1.777-1.703,1.777h-40.964c-0.981,0-1.778-0.799-1.778-1.777V16.5c0-0.981,0.797-1.778,1.778-1.778c0,0,6.722,0,8,0
		c1.277,0,2.018-0.889,2.018-0.889l2.979-5.644c0.348-0.374,0.808-0.578,1.299-0.578h12.372c0.492,0,0.953,0.205,1.298,0.578
		l2.979,5.644c0,0,0.739,0.889,2.018,0.889c1.277,0,8.002,0,8.002,0c0.98,0,1.703,0.797,1.703,1.778V39.611z"/>
	<path fill="#FFFFFF" d="M408,18.278c-4.418,0-8,3.582-8,8c0,4.419,3.582,8,8,8s8-3.581,8-8C416,21.859,412.418,18.278,408,18.278z
		 M408,32.855c-3.632,0-6.578-2.945-6.578-6.578c0-3.631,2.946-6.578,6.578-6.578s6.578,2.946,6.578,6.578
		C414.578,29.91,411.632,32.855,408,32.855z"/>
	<path fill="#FFFFFF" d="M408,14.722c-6.382,0-11.556,5.174-11.556,11.555c0,6.383,5.174,11.556,11.556,11.556
		s11.556-5.173,11.556-11.556C419.556,19.896,414.382,14.722,408,14.722z M408,36.411c-5.596,0-10.134-4.538-10.134-10.134
		c0-5.595,4.538-10.133,10.134-10.133s10.134,4.538,10.134,10.133C418.134,31.873,413.596,36.411,408,36.411z"/>
</g>
</svg>
