<?xml version="1.0" encoding="utf-8"?>
<!-- Generator: Adobe Illustrator 16.0.0, SVG Export Plug-In . SVG Version: 6.00 Build 0)  -->
<!DOCTYPE svg PUBLIC "-//W3C//DTD SVG 1.1//EN" "http://www.w3.org/Graphics/SVG/1.1/DTD/svg11.dtd">
<svg version="1.1" id="Layer_1" xmlns="http://www.w3.org/2000/svg" xmlns:xlink="http://www.w3.org/1999/xlink" x="0px" y="0px"
	 width="240px" height="48px" viewBox="0 0 240 48" enable-background="new 0 0 240 48" xml:space="preserve">
<g display="none">
	<rect x="0.03" y="0.018" display="inline" fill="#707070" width="23.99" height="24"/>
	<rect x="24.031" y="0.018" display="inline" fill="#707070" width="23.989" height="24"/>
	<rect x="48.032" y="0.018" display="inline" fill="#707070" width="23.989" height="24"/>
	<rect x="72.033" y="0.018" display="inline" fill="#707070" width="23.989" height="24"/>
	<rect x="96.034" y="0.018" display="inline" fill="#707070" width="23.989" height="24"/>
	<rect x="120.035" y="0.018" display="inline" fill="#707070" width="23.99" height="24"/>
	<rect x="144.036" y="0.018" display="inline" fill="#707070" width="23.989" height="24"/>
	<rect x="168.037" y="0.018" display="inline" fill="#707070" width="23.99" height="24"/>
	<rect x="192.038" y="0.018" display="inline" fill="#707070" width="23.989" height="24"/>
	<rect x="216.039" y="0.018" display="inline" fill="#707070" width="23.99" height="24"/>
	<g display="inline">
		<line fill="none" stroke="#00A651" stroke-width="0.1" x1="240.029" y1="412.518" x2="240.029" y2="636.518"/>
		<line fill="none" stroke="#00A651" stroke-width="0.1" x1="216.039" y1="412.518" x2="216.039" y2="636.518"/>
		<line fill="none" stroke="#00A651" stroke-width="0.1" x1="216.027" y1="412.518" x2="216.027" y2="636.518"/>
		<line fill="none" stroke="#00A651" stroke-width="0.1" x1="192.038" y1="412.518" x2="192.038" y2="636.518"/>
		<line fill="none" stroke="#00A651" stroke-width="0.1" x1="192.027" y1="412.518" x2="192.027" y2="636.518"/>
		<line fill="none" stroke="#00A651" stroke-width="0.1" x1="168.037" y1="412.518" x2="168.037" y2="636.518"/>
		<line fill="none" stroke="#00A651" stroke-width="0.1" x1="168.025" y1="412.518" x2="168.025" y2="636.518"/>
		<line fill="none" stroke="#00A651" stroke-width="0.1" x1="144.036" y1="412.518" x2="144.036" y2="636.518"/>
		<line fill="none" stroke="#00A651" stroke-width="0.1" x1="144.025" y1="412.518" x2="144.025" y2="636.518"/>
		<line fill="none" stroke="#00A651" stroke-width="0.1" x1="120.035" y1="412.518" x2="120.035" y2="636.518"/>
		<line fill="none" stroke="#00A651" stroke-width="0.1" x1="120.023" y1="412.518" x2="120.023" y2="636.518"/>
		<line fill="none" stroke="#00A651" stroke-width="0.1" x1="96.034" y1="412.518" x2="96.034" y2="636.518"/>
		<line fill="none" stroke="#00A651" stroke-width="0.1" x1="96.022" y1="412.518" x2="96.022" y2="636.518"/>
		<line fill="none" stroke="#00A651" stroke-width="0.1" x1="72.033" y1="412.518" x2="72.033" y2="636.518"/>
		<line fill="none" stroke="#00A651" stroke-width="0.1" x1="72.021" y1="412.518" x2="72.021" y2="636.518"/>
		<line fill="none" stroke="#00A651" stroke-width="0.1" x1="48.032" y1="412.518" x2="48.032" y2="636.518"/>
		<line fill="none" stroke="#00A651" stroke-width="0.1" x1="48.02" y1="412.518" x2="48.02" y2="636.518"/>
		<line fill="none" stroke="#00A651" stroke-width="0.1" x1="24.031" y1="412.518" x2="24.031" y2="636.518"/>
		<line fill="none" stroke="#00A651" stroke-width="0.1" x1="24.02" y1="412.518" x2="24.02" y2="636.518"/>
		<line fill="none" stroke="#00A651" stroke-width="0.1" x1="0.03" y1="412.518" x2="0.03" y2="636.518"/>
		<line fill="none" stroke="#00A651" stroke-width="0.1" x1="-580.834" y1="24.018" x2="-140.834" y2="24.018"/>
		<line fill="none" stroke="#00A651" stroke-width="0.1" x1="-580.834" y1="0.018" x2="-140.834" y2="0.018"/>
	</g>
</g>
<g display="none">
	<rect x="0.03" y="24.047" display="inline" fill="#707070" width="23.99" height="24"/>
	<rect x="24.031" y="24.047" display="inline" fill="#707070" width="23.989" height="24"/>
	<rect x="48.032" y="24.047" display="inline" fill="#707070" width="23.989" height="24"/>
	<rect x="72.033" y="24.047" display="inline" fill="#707070" width="23.989" height="24"/>
	<rect x="96.034" y="24.047" display="inline" fill="#707070" width="23.989" height="24"/>
	<rect x="120.035" y="24.047" display="inline" fill="#707070" width="23.99" height="24"/>
	<rect x="144.036" y="24.047" display="inline" fill="#707070" width="23.989" height="24"/>
	<rect x="168.037" y="24.047" display="inline" fill="#707070" width="23.99" height="24"/>
	<rect x="192.038" y="24.047" display="inline" fill="#707070" width="23.989" height="24"/>
	<rect x="216.039" y="24.047" display="inline" fill="#707070" width="23.99" height="24"/>
	<g display="inline">
		<line fill="none" stroke="#00A651" stroke-width="0.1" x1="240.029" y1="436.548" x2="240.029" y2="660.548"/>
		<line fill="none" stroke="#00A651" stroke-width="0.1" x1="216.039" y1="436.548" x2="216.039" y2="660.548"/>
		<line fill="none" stroke="#00A651" stroke-width="0.1" x1="216.027" y1="436.548" x2="216.027" y2="660.548"/>
		<line fill="none" stroke="#00A651" stroke-width="0.1" x1="192.038" y1="436.548" x2="192.038" y2="660.548"/>
		<line fill="none" stroke="#00A651" stroke-width="0.1" x1="192.027" y1="436.548" x2="192.027" y2="660.548"/>
		<line fill="none" stroke="#00A651" stroke-width="0.1" x1="168.037" y1="436.548" x2="168.037" y2="660.548"/>
		<line fill="none" stroke="#00A651" stroke-width="0.1" x1="168.025" y1="436.548" x2="168.025" y2="660.548"/>
		<line fill="none" stroke="#00A651" stroke-width="0.1" x1="144.036" y1="436.548" x2="144.036" y2="660.548"/>
		<line fill="none" stroke="#00A651" stroke-width="0.1" x1="144.025" y1="436.548" x2="144.025" y2="660.548"/>
		<line fill="none" stroke="#00A651" stroke-width="0.1" x1="120.035" y1="436.548" x2="120.035" y2="660.548"/>
		<line fill="none" stroke="#00A651" stroke-width="0.1" x1="120.023" y1="436.548" x2="120.023" y2="660.548"/>
		<line fill="none" stroke="#00A651" stroke-width="0.1" x1="96.034" y1="436.548" x2="96.034" y2="660.548"/>
		<line fill="none" stroke="#00A651" stroke-width="0.1" x1="96.022" y1="436.548" x2="96.022" y2="660.548"/>
		<line fill="none" stroke="#00A651" stroke-width="0.1" x1="72.033" y1="436.548" x2="72.033" y2="660.548"/>
		<line fill="none" stroke="#00A651" stroke-width="0.1" x1="72.021" y1="436.548" x2="72.021" y2="660.548"/>
		<line fill="none" stroke="#00A651" stroke-width="0.1" x1="48.032" y1="436.548" x2="48.032" y2="660.548"/>
		<line fill="none" stroke="#00A651" stroke-width="0.1" x1="48.02" y1="436.548" x2="48.02" y2="660.548"/>
		<line fill="none" stroke="#00A651" stroke-width="0.1" x1="24.031" y1="436.548" x2="24.031" y2="660.548"/>
		<line fill="none" stroke="#00A651" stroke-width="0.1" x1="24.02" y1="436.548" x2="24.02" y2="660.548"/>
		<line fill="none" stroke="#00A651" stroke-width="0.1" x1="0.03" y1="436.548" x2="0.03" y2="660.548"/>
		<line fill="none" stroke="#00A651" stroke-width="0.1" x1="-580.834" y1="48.047" x2="-140.834" y2="48.047"/>
		<line fill="none" stroke="#00A651" stroke-width="0.1" x1="-580.834" y1="24.047" x2="-140.834" y2="24.047"/>
	</g>
</g>
<g id="Price_x5F_Tags_1_">
	<path fill="#FFFFFF" d="M18.913,1.722c0.47,0,0.853,0.382,0.853,0.853v5.964c-0.004,0.336-0.135,0.65-0.356,0.872L7.931,20.364
		c-0.157,0.158-0.372,0.244-0.603,0.244c-0.23,0-0.444-0.086-0.602-0.244l-5.6-5.604c-0.159-0.158-0.246-0.373-0.245-0.605
		c0.001-0.229,0.087-0.443,0.254-0.609L12.238,2.078c0.239-0.229,0.553-0.356,0.881-0.356H18.913 M18.913,0.87h-5.794
		c-0.578,0-1.1,0.231-1.484,0.605L0.524,12.954c-0.653,0.65-0.666,1.744,0,2.41l5.6,5.604c0.331,0.33,0.768,0.493,1.205,0.493
		c0.44,0,0.878-0.166,1.207-0.493l11.462-10.94c0.409-0.408,0.614-0.942,0.621-1.477V2.575C20.618,1.633,19.855,0.87,18.913,0.87
		L18.913,0.87z"/>
	<path fill="#FFFFFF" d="M22.324,2.575H21.47v0.853h0.854c0.469,0,0.852,0.382,0.852,0.852v5.965
		c-0.004,0.336-0.135,0.65-0.356,0.871L11.342,22.068c-0.159,0.158-0.373,0.246-0.604,0.246c-0.23,0-0.443-0.088-0.602-0.246
		l-0.742-0.744l-0.271,0.26c-0.114,0.113-0.239,0.216-0.372,0.306l0.783,0.783c0.331,0.331,0.768,0.493,1.204,0.493
		c0.44,0,0.879-0.166,1.208-0.493l11.462-10.94c0.409-0.409,0.615-0.942,0.621-1.477V4.28C24.029,3.337,23.266,2.575,22.324,2.575z"
		/>
	<path fill="#FFFFFF" d="M15.928,4.28c0.705,0,1.279,0.574,1.279,1.279s-0.574,1.279-1.279,1.279c-0.705,0-1.279-0.574-1.279-1.279
		S15.224,4.28,15.928,4.28 M15.928,3.428c-1.177,0-2.132,0.954-2.132,2.131s0.955,2.132,2.132,2.132
		c1.178,0,2.132-0.955,2.132-2.132S17.106,3.428,15.928,3.428L15.928,3.428z"/>
</g>
<g id="Camera_2_">
	<path fill="#FFFFFF" d="M46.288,6.24c0,0-3.243,0-3.765,0c-0.467,0-0.698-0.267-0.698-0.267l-1.381-2.719l-0.002,0.005
		c-0.325-0.352-0.786-0.574-1.304-0.574h-6.186c-0.516,0-0.977,0.223-1.303,0.574l-0.001-0.005l-1.382,2.719
		c0,0-0.232,0.267-0.698,0.267c-0.521,0-3.765,0-3.765,0c-0.981,0-1.775,0.796-1.775,1.778v11.555c0,0.982,0.794,1.779,1.777,1.779
		h20.481c0.982,0,1.74-0.797,1.74-1.779V8.018C48.028,7.036,47.27,6.24,46.288,6.24z M47.139,19.573c0,0.49-0.36,0.889-0.852,0.889
		h-20.48c-0.491,0-0.891-0.397-0.891-0.889V8.018c0-0.49,0.398-0.889,0.891-0.889c0,0,3.359,0,4,0c0.639,0,1.009-0.444,1.009-0.444
		l1.489-2.822c0.174-0.187,0.402-0.289,0.648-0.289h6.186c0.246,0,0.478,0.103,0.649,0.289l1.489,2.822c0,0,0.37,0.444,1.01,0.444
		c0.639,0,4,0,4,0c0.49,0,0.852,0.398,0.852,0.889V19.573z"/>
	<path fill="#FFFFFF" d="M36.028,8.906c-2.209,0-4,1.791-4,4s1.791,4,4,4s4-1.791,4-4S38.237,8.906,36.028,8.906z M36.028,16.195
		c-1.815,0-3.289-1.473-3.289-3.289c0-1.815,1.474-3.29,3.289-3.29s3.289,1.474,3.289,3.29S37.844,16.195,36.028,16.195z"/>
	<path fill="#FFFFFF" d="M36.028,7.128c-3.19,0-5.776,2.587-5.776,5.778s2.586,5.777,5.776,5.777s5.778-2.586,5.778-5.777
		C41.807,9.716,39.219,7.128,36.028,7.128z M36.028,17.973c-2.797,0-5.065-2.27-5.065-5.066c0-2.799,2.27-5.066,5.065-5.066
		c2.799,0,5.067,2.269,5.067,5.066C41.096,15.704,38.827,17.973,36.028,17.973z"/>
</g>
<rect display="none" fill="#FFFFFF" width="24" height="24"/>
<g id="Previous_3_">
	<g>
		<defs>
			<rect id="SVGID_1_" x="54.527" y="2.018" width="11" height="20"/>
		</defs>
		<clipPath id="SVGID_2_">
			<use xlink:href="#SVGID_1_"  overflow="visible"/>
		</clipPath>
		<polygon clip-path="url(#SVGID_2_)" fill="#FFFFFF" points="65.094,2.726 55.801,12.018 65.094,21.311 64.527,21.876 
			54.67,12.018 64.527,2.161 		"/>
	</g>
</g>
<g id="Next_2_">
	<g>
		<defs>
			<rect id="SVGID_3_" x="78.527" y="2.019" width="11" height="19.999"/>
		</defs>
		<clipPath id="SVGID_4_">
			<use xlink:href="#SVGID_3_"  overflow="visible"/>
		</clipPath>
		<polygon clip-path="url(#SVGID_4_)" fill="#FFFFFF" points="78.963,2.726 88.256,12.018 78.963,21.311 79.527,21.876 
			89.387,12.018 79.527,2.162 		"/>
	</g>
</g>
<g id="Search_3_">
	<g>
		<defs>
			<rect id="SVGID_5_" x="96.246" y="0.4" width="24.001" height="24.001"/>
		</defs>
		<clipPath id="SVGID_6_">
			<use xlink:href="#SVGID_5_"  overflow="visible"/>
		</clipPath>
		<path clip-path="url(#SVGID_6_)" fill="#FFFFFF" d="M112.56,15.117c1.203-1.546,1.928-3.484,1.928-5.596
			c0-5.036-4.084-9.12-9.121-9.12c-5.036,0-9.12,4.084-9.12,9.12c0,5.037,4.084,9.12,9.12,9.12c2.235,0,4.279-0.806,5.863-2.139
			l6.985,6.939l1.357-1.313L112.56,15.117z M105.366,17.873c-4.612,0-8.352-3.739-8.352-8.353c0-4.612,3.739-8.353,8.352-8.353
			c4.613,0,8.354,3.74,8.354,8.353C113.72,14.134,109.979,17.873,105.366,17.873z"/>
	</g>
</g>
<g id="Map_1_">
	<g>
		<defs>
			<rect id="SVGID_7_" x="120.023" y="0.516" width="24.002" height="24.002"/>
		</defs>
		<clipPath id="SVGID_8_">
			<use xlink:href="#SVGID_7_"  overflow="visible"/>
		</clipPath>
		<path clip-path="url(#SVGID_8_)" fill="#FFFFFF" d="M135.865,3.576l-7.682-2.88l-8.16,3.06v20.228l8.16-3.061l7.682,2.88
			l8.16-3.06V0.516L135.865,3.576z M128.664,1.9l6.721,2.52v18.177l-6.721-2.521V1.9z M120.982,4.42l6.722-2.52v18.177l-6.722,2.521
			V4.42z M143.064,20.078l-6.721,2.521V4.42l6.721-2.52V20.078z"/>
	</g>
</g>
<g id="Map_3_">
	<g>
		<defs>
			<rect id="SVGID_9_" x="120.035" y="24.558" width="23.99" height="23.989"/>
		</defs>
		<clipPath id="SVGID_10_">
			<use xlink:href="#SVGID_9_"  overflow="visible"/>
		</clipPath>
		<polygon clip-path="url(#SVGID_10_)" fill="#FFFFFF" points="127.712,24.918 120.035,27.795 120.035,48.014 127.712,45.135 		"/>
	</g>
	<g>
		<defs>
			<rect id="SVGID_11_" x="120.035" y="24.558" width="23.99" height="23.989"/>
		</defs>
		<clipPath id="SVGID_12_">
			<use xlink:href="#SVGID_11_"  overflow="visible"/>
		</clipPath>
		<polygon clip-path="url(#SVGID_12_)" fill="#FFFFFF" points="135.389,27.437 128.672,24.918 128.672,45.135 135.389,47.654 		"/>
	</g>
	<g>
		<defs>
			<rect id="SVGID_13_" x="120.035" y="24.558" width="23.99" height="23.989"/>
		</defs>
		<clipPath id="SVGID_14_">
			<use xlink:href="#SVGID_13_"  overflow="visible"/>
		</clipPath>
		<polygon clip-path="url(#SVGID_14_)" fill="#FFFFFF" points="136.35,27.437 136.35,47.654 144.025,44.775 144.025,24.558 		"/>
	</g>
</g>
<g id="Filter_1_">
	<g>
		<defs>
			<rect id="SVGID_15_" x="144.139" y="0.074" width="23.889" height="23.887"/>
		</defs>
		<clipPath id="SVGID_16_">
			<use xlink:href="#SVGID_15_"  overflow="visible"/>
		</clipPath>
		<path clip-path="url(#SVGID_16_)" fill="#FFFFFF" d="M167.889,0.074h-23.613l9.418,9.417v9.693l4.777,4.777V9.491L167.889,0.074z
			 M157.516,21.848l-2.865-2.867V9.286l-8.256-8.256h19.379l-8.258,8.256V21.848z"/>
	</g>
</g>
<g id="Filter_5_">
	<g>
		<defs>
			<rect id="SVGID_17_" x="144.042" y="24.053" width="23.995" height="23.994"/>
		</defs>
		<clipPath id="SVGID_18_">
			<use xlink:href="#SVGID_17_"  overflow="visible"/>
		</clipPath>
		<path clip-path="url(#SVGID_18_)" fill="#FFFFFF" d="M167.898,24.053H144.18l9.459,9.459v9.736l4.801,4.799V33.512L167.898,24.053
			z"/>
	</g>
</g>
<g id="Plus_4_">
	<g>
		<defs>
			<rect id="SVGID_19_" x="168.037" y="0.017" width="24.001" height="24.001"/>
		</defs>
		<clipPath id="SVGID_20_">
			<use xlink:href="#SVGID_19_"  overflow="visible"/>
		</clipPath>
		<path clip-path="url(#SVGID_20_)" fill="#FFFFFF" d="M180.037,0.785c6.193,0,11.234,5.039,11.234,11.232
			c0,6.194-5.041,11.233-11.234,11.233s-11.23-5.039-11.23-11.233C168.807,5.824,173.844,0.785,180.037,0.785 M180.037,0.017
			c-6.628,0-12,5.372-12,12s5.372,12,12,12c6.629,0,12.001-5.372,12.001-12S186.666,0.017,180.037,0.017L180.037,0.017z"/>
	</g>
	<g>
		<defs>
			<rect id="SVGID_21_" x="168.037" y="0.017" width="24.001" height="24.001"/>
		</defs>
		<clipPath id="SVGID_22_">
			<use xlink:href="#SVGID_21_"  overflow="visible"/>
		</clipPath>
		<polygon clip-path="url(#SVGID_22_)" fill="#FFFFFF" points="187.238,11.538 180.518,11.538 180.518,4.816 179.559,4.816 
			179.559,11.538 172.837,11.538 172.837,12.497 179.559,12.497 179.559,19.218 180.518,19.218 180.518,12.497 187.238,12.497 		"/>
	</g>
</g>
<path fill="#FFFFFF" d="M180.07,24.053c-6.604,0-11.957,5.354-11.957,11.957s5.353,11.957,11.957,11.957
	c6.604,0,11.957-5.354,11.957-11.957S186.675,24.053,180.07,24.053z M187.244,36.488h-6.695v6.695h-0.957v-6.695h-6.695v-0.957
	h6.695v-6.695h0.957v6.695h6.695V36.488z"/>
<g id="Search_4_">
	<g>
		<defs>
			<rect id="SVGID_23_" x="96.246" y="24.053" width="23.695" height="23.695"/>
		</defs>
		<clipPath id="SVGID_24_">
			<use xlink:href="#SVGID_23_"  overflow="visible"/>
		</clipPath>
		<path clip-path="url(#SVGID_24_)" fill="#FFFFFF" d="M119.646,45.176l-7.002-7.002c1.009-1.455,1.61-3.213,1.61-5.116
			c0-4.974-4.031-9.005-9.004-9.005s-9.005,4.031-9.005,9.005c0,4.972,4.032,9.004,9.005,9.004c2.039,0,3.917-0.688,5.428-1.832
			l6.957,6.956L119.646,45.176z M98.143,33.058c0-3.921,3.188-7.108,7.108-7.108c3.921,0,7.108,3.188,7.108,7.108
			s-3.188,7.108-7.108,7.108S98.143,36.978,98.143,33.058z"/>
	</g>
</g>
<g id="Keypad_1_">
	<g>
		<defs>
			<rect id="SVGID_25_" x="192.033" y="0.018" width="24" height="24"/>
		</defs>
		<clipPath id="SVGID_26_">
			<use xlink:href="#SVGID_25_"  overflow="visible"/>
		</clipPath>
		<path clip-path="url(#SVGID_26_)" fill="#FFFFFF" d="M195.395,18.066c1.429,0,2.592,1.162,2.592,2.591
			c0,1.43-1.163,2.594-2.592,2.594c-1.43,0-2.592-1.164-2.592-2.594C192.803,19.229,193.965,18.066,195.395,18.066 M195.395,17.298
			c-1.854,0-3.36,1.505-3.36,3.359c0,1.856,1.506,3.36,3.36,3.36s3.358-1.504,3.358-3.36
			C198.753,18.803,197.249,17.298,195.395,17.298L195.395,17.298z"/>
	</g>
	<g>
		<defs>
			<rect id="SVGID_27_" x="192.033" y="0.018" width="24" height="24"/>
		</defs>
		<clipPath id="SVGID_28_">
			<use xlink:href="#SVGID_27_"  overflow="visible"/>
		</clipPath>
		<path clip-path="url(#SVGID_28_)" fill="#FFFFFF" d="M204.033,18.066c1.429,0,2.593,1.162,2.593,2.591
			c0,1.43-1.164,2.594-2.593,2.594c-1.43,0-2.592-1.164-2.592-2.594C201.441,19.229,202.604,18.066,204.033,18.066 M204.033,17.298
			c-1.854,0-3.36,1.505-3.36,3.359c0,1.856,1.507,3.36,3.36,3.36c1.855,0,3.359-1.504,3.359-3.36
			C207.395,18.803,205.891,17.298,204.033,17.298L204.033,17.298z"/>
	</g>
	<g>
		<defs>
			<rect id="SVGID_29_" x="192.033" y="0.018" width="24" height="24"/>
		</defs>
		<clipPath id="SVGID_30_">
			<use xlink:href="#SVGID_29_"  overflow="visible"/>
		</clipPath>
		<path clip-path="url(#SVGID_30_)" fill="#FFFFFF" d="M212.673,18.066c1.429,0,2.595,1.162,2.595,2.591
			c0,1.43-1.166,2.594-2.595,2.594s-2.591-1.164-2.591-2.594C210.082,19.229,211.244,18.066,212.673,18.066 M212.673,17.298
			c-1.854,0-3.358,1.505-3.358,3.359c0,1.856,1.504,3.36,3.358,3.36c1.856,0,3.36-1.504,3.36-3.36
			C216.033,18.803,214.529,17.298,212.673,17.298L212.673,17.298z"/>
	</g>
	<g>
		<defs>
			<rect id="SVGID_31_" x="192.033" y="0.018" width="24" height="24"/>
		</defs>
		<clipPath id="SVGID_32_">
			<use xlink:href="#SVGID_31_"  overflow="visible"/>
		</clipPath>
		<path clip-path="url(#SVGID_32_)" fill="#FFFFFF" d="M195.395,9.427c1.429,0,2.592,1.162,2.592,2.591
			c0,1.43-1.163,2.593-2.592,2.593c-1.43,0-2.592-1.163-2.592-2.593C192.803,10.588,193.965,9.427,195.395,9.427 M195.395,8.658
			c-1.854,0-3.36,1.505-3.36,3.36c0,1.856,1.506,3.36,3.36,3.36s3.358-1.504,3.358-3.36C198.753,10.163,197.249,8.658,195.395,8.658
			L195.395,8.658z"/>
	</g>
	<g>
		<defs>
			<rect id="SVGID_33_" x="192.033" y="0.018" width="24" height="24"/>
		</defs>
		<clipPath id="SVGID_34_">
			<use xlink:href="#SVGID_33_"  overflow="visible"/>
		</clipPath>
		<path clip-path="url(#SVGID_34_)" fill="#FFFFFF" d="M204.033,9.427c1.429,0,2.593,1.162,2.593,2.591
			c0,1.43-1.164,2.593-2.593,2.593c-1.43,0-2.592-1.163-2.592-2.593C201.441,10.588,202.604,9.427,204.033,9.427 M204.033,8.658
			c-1.854,0-3.36,1.505-3.36,3.36c0,1.856,1.507,3.36,3.36,3.36c1.855,0,3.359-1.504,3.359-3.36
			C207.395,10.163,205.891,8.658,204.033,8.658L204.033,8.658z"/>
	</g>
	<g>
		<defs>
			<rect id="SVGID_35_" x="192.033" y="0.018" width="24" height="24"/>
		</defs>
		<clipPath id="SVGID_36_">
			<use xlink:href="#SVGID_35_"  overflow="visible"/>
		</clipPath>
		<path clip-path="url(#SVGID_36_)" fill="#FFFFFF" d="M212.673,9.427c1.429,0,2.595,1.162,2.595,2.591
			c0,1.43-1.166,2.593-2.595,2.593s-2.591-1.163-2.591-2.593C210.082,10.588,211.244,9.427,212.673,9.427 M212.673,8.658
			c-1.854,0-3.358,1.505-3.358,3.36c0,1.856,1.504,3.36,3.358,3.36c1.856,0,3.36-1.504,3.36-3.36
			C216.033,10.163,214.529,8.658,212.673,8.658L212.673,8.658z"/>
	</g>
	<g>
		<defs>
			<rect id="SVGID_37_" x="192.033" y="0.018" width="24" height="24"/>
		</defs>
		<clipPath id="SVGID_38_">
			<use xlink:href="#SVGID_37_"  overflow="visible"/>
		</clipPath>
		<path clip-path="url(#SVGID_38_)" fill="#FFFFFF" d="M195.395,0.787c1.429,0,2.592,1.163,2.592,2.592
			c0,1.43-1.163,2.593-2.592,2.593c-1.43,0-2.592-1.163-2.592-2.593C192.803,1.95,193.965,0.787,195.395,0.787 M195.395,0.018
			c-1.854,0-3.36,1.505-3.36,3.36s1.506,3.359,3.36,3.359s3.358-1.504,3.358-3.359S197.249,0.018,195.395,0.018L195.395,0.018z"/>
	</g>
	<g>
		<defs>
			<rect id="SVGID_39_" x="192.033" y="0.018" width="24" height="24"/>
		</defs>
		<clipPath id="SVGID_40_">
			<use xlink:href="#SVGID_39_"  overflow="visible"/>
		</clipPath>
		<path clip-path="url(#SVGID_40_)" fill="#FFFFFF" d="M204.033,0.787c1.429,0,2.593,1.163,2.593,2.592
			c0,1.43-1.164,2.593-2.593,2.593c-1.43,0-2.592-1.163-2.592-2.593C201.441,1.95,202.604,0.787,204.033,0.787 M204.033,0.018
			c-1.854,0-3.36,1.505-3.36,3.36s1.507,3.359,3.36,3.359c1.855,0,3.359-1.504,3.359-3.359S205.891,0.018,204.033,0.018
			L204.033,0.018z"/>
	</g>
	<g>
		<defs>
			<rect id="SVGID_41_" x="192.033" y="0.018" width="24" height="24"/>
		</defs>
		<clipPath id="SVGID_42_">
			<use xlink:href="#SVGID_41_"  overflow="visible"/>
		</clipPath>
		<path clip-path="url(#SVGID_42_)" fill="#FFFFFF" d="M212.673,0.787c1.429,0,2.595,1.163,2.595,2.592
			c0,1.43-1.166,2.593-2.595,2.593s-2.591-1.163-2.591-2.593C210.082,1.95,211.244,0.787,212.673,0.787 M212.673,0.018
			c-1.854,0-3.358,1.505-3.358,3.36s1.504,3.359,3.358,3.359c1.856,0,3.36-1.504,3.36-3.359S214.529,0.018,212.673,0.018
			L212.673,0.018z"/>
	</g>
</g>
<g id="Keypad_3_">
	<g>
		<defs>
			<rect id="SVGID_43_" x="192.033" y="24.051" width="24" height="24"/>
		</defs>
		<clipPath id="SVGID_44_">
			<use xlink:href="#SVGID_43_"  overflow="visible"/>
		</clipPath>
		<path clip-path="url(#SVGID_44_)" fill="#FFFFFF" d="M195.395,41.33c-1.854,0-3.36,1.504-3.36,3.359s1.506,3.36,3.36,3.36
			s3.358-1.505,3.358-3.36S197.249,41.33,195.395,41.33L195.395,41.33z"/>
	</g>
	<g>
		<defs>
			<rect id="SVGID_45_" x="192.033" y="24.051" width="24" height="24"/>
		</defs>
		<clipPath id="SVGID_46_">
			<use xlink:href="#SVGID_45_"  overflow="visible"/>
		</clipPath>
		<path clip-path="url(#SVGID_46_)" fill="#FFFFFF" d="M204.033,41.33c-1.854,0-3.36,1.504-3.36,3.359s1.507,3.36,3.36,3.36
			c1.855,0,3.359-1.505,3.359-3.36C207.395,42.834,205.891,41.33,204.033,41.33L204.033,41.33z"/>
	</g>
	<g>
		<defs>
			<rect id="SVGID_47_" x="192.033" y="24.051" width="24" height="24"/>
		</defs>
		<clipPath id="SVGID_48_">
			<use xlink:href="#SVGID_47_"  overflow="visible"/>
		</clipPath>
		<path clip-path="url(#SVGID_48_)" fill="#FFFFFF" d="M212.673,41.33c-1.854,0-3.358,1.504-3.358,3.359s1.504,3.36,3.358,3.36
			c1.856,0,3.36-1.505,3.36-3.36S214.529,41.33,212.673,41.33L212.673,41.33z"/>
	</g>
	<g>
		<defs>
			<rect id="SVGID_49_" x="192.033" y="24.051" width="24" height="24"/>
		</defs>
		<clipPath id="SVGID_50_">
			<use xlink:href="#SVGID_49_"  overflow="visible"/>
		</clipPath>
		<path clip-path="url(#SVGID_50_)" fill="#FFFFFF" d="M195.395,32.69c-1.854,0-3.36,1.504-3.36,3.36
			c0,1.855,1.506,3.359,3.36,3.359s3.358-1.504,3.358-3.359C198.753,34.194,197.249,32.69,195.395,32.69L195.395,32.69z"/>
	</g>
	<g>
		<defs>
			<rect id="SVGID_51_" x="192.033" y="24.051" width="24" height="24"/>
		</defs>
		<clipPath id="SVGID_52_">
			<use xlink:href="#SVGID_51_"  overflow="visible"/>
		</clipPath>
		<path clip-path="url(#SVGID_52_)" fill="#FFFFFF" d="M204.033,32.69c-1.854,0-3.36,1.504-3.36,3.36
			c0,1.855,1.507,3.359,3.36,3.359c1.855,0,3.359-1.504,3.359-3.359C207.393,34.194,205.891,32.69,204.033,32.69L204.033,32.69z"/>
	</g>
	<g>
		<defs>
			<rect id="SVGID_53_" x="192.033" y="24.051" width="24" height="24"/>
		</defs>
		<clipPath id="SVGID_54_">
			<use xlink:href="#SVGID_53_"  overflow="visible"/>
		</clipPath>
		<path clip-path="url(#SVGID_54_)" fill="#FFFFFF" d="M212.673,32.69c-1.854,0-3.358,1.504-3.358,3.36
			c0,1.855,1.504,3.359,3.358,3.359c1.856,0,3.36-1.504,3.36-3.359C216.033,34.194,214.529,32.69,212.673,32.69L212.673,32.69z"/>
	</g>
	<g>
		<defs>
			<rect id="SVGID_55_" x="192.033" y="24.051" width="24" height="24"/>
		</defs>
		<clipPath id="SVGID_56_">
			<use xlink:href="#SVGID_55_"  overflow="visible"/>
		</clipPath>
		<path clip-path="url(#SVGID_56_)" fill="#FFFFFF" d="M195.395,24.051c-1.854,0-3.36,1.504-3.36,3.359s1.506,3.359,3.36,3.359
			s3.358-1.504,3.358-3.359S197.249,24.051,195.395,24.051L195.395,24.051z"/>
	</g>
	<g>
		<defs>
			<rect id="SVGID_57_" x="192.033" y="24.051" width="24" height="24"/>
		</defs>
		<clipPath id="SVGID_58_">
			<use xlink:href="#SVGID_57_"  overflow="visible"/>
		</clipPath>
		<path clip-path="url(#SVGID_58_)" fill="#FFFFFF" d="M204.033,24.051c-1.854,0-3.36,1.504-3.36,3.359s1.507,3.359,3.36,3.359
			c1.855,0,3.359-1.504,3.359-3.359C207.395,25.555,205.891,24.051,204.033,24.051L204.033,24.051z"/>
	</g>
	<g>
		<defs>
			<rect id="SVGID_59_" x="192.033" y="24.051" width="24" height="24"/>
		</defs>
		<clipPath id="SVGID_60_">
			<use xlink:href="#SVGID_59_"  overflow="visible"/>
		</clipPath>
		<path clip-path="url(#SVGID_60_)" fill="#FFFFFF" d="M212.673,24.051c-1.854,0-3.358,1.504-3.358,3.359s1.504,3.359,3.358,3.359
			c1.856,0,3.36-1.504,3.36-3.359S214.529,24.051,212.673,24.051L212.673,24.051z"/>
	</g>
</g>
<g id="Camera_5_">
	<g>
		<defs>
			<rect id="SVGID_61_" x="24.026" y="26.715" width="24" height="18.666"/>
		</defs>
		<clipPath id="SVGID_62_">
			<use xlink:href="#SVGID_61_"  overflow="visible"/>
		</clipPath>
		<path clip-path="url(#SVGID_62_)" fill="#FFFFFF" d="M46.287,30.271c0,0-3.245,0-3.766,0c-0.466,0-0.698-0.269-0.698-0.269
			l-1.382-2.719l-0.002,0.006c-0.324-0.353-0.784-0.574-1.302-0.574h-6.186c-0.516,0-0.977,0.223-1.303,0.574l-0.002-0.006
			l-1.38,2.719c0,0-0.232,0.269-0.697,0.269c-0.521,0-3.765,0-3.765,0c-0.982,0-1.777,0.796-1.777,1.776v11.557
			c0,0.98,0.795,1.777,1.777,1.777h20.483c0.98,0,1.739-0.797,1.739-1.777V32.047C48.026,31.066,47.268,30.271,46.287,30.271z
			 M36.026,42.715c-3.191,0-5.777-2.588-5.777-5.778s2.586-5.776,5.777-5.776s5.777,2.586,5.777,5.776
			C41.804,40.127,39.218,42.715,36.026,42.715z"/>
	</g>
	<g>
		<defs>
			<rect id="SVGID_63_" x="24.026" y="26.715" width="24" height="18.666"/>
		</defs>
		<clipPath id="SVGID_64_">
			<use xlink:href="#SVGID_63_"  overflow="visible"/>
		</clipPath>
		<path clip-path="url(#SVGID_64_)" fill="#FFFFFF" d="M36.026,31.871c-2.797,0-5.066,2.269-5.066,5.065s2.27,5.067,5.066,5.067
			c2.799,0,5.067-2.271,5.067-5.067S38.825,31.871,36.026,31.871z M36.026,40.937c-2.208,0-4-1.791-4-4s1.792-4,4-4
			c2.21,0,4,1.791,4,4S38.236,40.937,36.026,40.937z"/>
	</g>
	<g>
		<defs>
			<rect id="SVGID_65_" x="24.026" y="26.715" width="24" height="18.666"/>
		</defs>
		<clipPath id="SVGID_66_">
			<use xlink:href="#SVGID_65_"  overflow="visible"/>
		</clipPath>
		<circle clip-path="url(#SVGID_66_)" fill="#FFFFFF" cx="36.026" cy="36.937" r="3.289"/>
	</g>
</g>
<g id="Price_x5F_Tags_5_">
	<g>
		<defs>
			<rect id="SVGID_67_" x="0.025" y="25.246" width="24" height="22.347"/>
		</defs>
		<clipPath id="SVGID_68_">
			<use xlink:href="#SVGID_67_"  overflow="visible"/>
		</clipPath>
		<path clip-path="url(#SVGID_68_)" fill="#FFFFFF" d="M22.369,26.901h-0.827v0.828h0.827c0.456,0,0.828,0.371,0.828,0.827v5.789
			c-0.004,0.326-0.131,0.631-0.346,0.846l-11.14,10.633c-0.154,0.153-0.362,0.238-0.587,0.238c-0.223,0-0.43-0.084-0.583-0.238
			L9.82,45.103l-0.262,0.251c-0.112,0.109-0.233,0.209-0.362,0.296l0.76,0.761c0.322,0.321,0.745,0.479,1.168,0.479
			c0.429,0,0.854-0.161,1.172-0.479l11.125-10.619c0.397-0.396,0.597-0.914,0.603-1.435v-5.8
			C24.024,27.643,23.284,26.901,22.369,26.901z"/>
	</g>
	<g>
		<defs>
			<rect id="SVGID_69_" x="0.025" y="25.246" width="24" height="22.347"/>
		</defs>
		<clipPath id="SVGID_70_">
			<use xlink:href="#SVGID_69_"  overflow="visible"/>
		</clipPath>
		<path clip-path="url(#SVGID_70_)" fill="#FFFFFF" d="M19.06,25.246h-5.624c-0.561,0-1.067,0.227-1.44,0.588L1.211,36.975
			c-0.634,0.633-0.646,1.693,0,2.341l5.434,5.438c0.322,0.322,0.745,0.479,1.169,0.479c0.428,0,0.854-0.161,1.172-0.479
			l11.125-10.619c0.398-0.396,0.597-0.914,0.604-1.434V26.9C20.715,25.988,19.975,25.246,19.06,25.246z M16.163,31.039
			c-0.684,0-1.242-0.558-1.242-1.242c0-0.684,0.558-1.24,1.242-1.24c0.685,0,1.241,0.557,1.241,1.24
			C17.404,30.481,16.848,31.039,16.163,31.039z"/>
	</g>
	<g>
		<defs>
			<rect id="SVGID_71_" x="0.025" y="25.246" width="24" height="22.347"/>
		</defs>
		<clipPath id="SVGID_72_">
			<use xlink:href="#SVGID_71_"  overflow="visible"/>
		</clipPath>
		<path clip-path="url(#SVGID_72_)" fill="#FFFFFF" d="M22.369,26.901h-0.827v5.812c-0.009,0.76-0.309,1.473-0.858,2.021
			L9.571,45.34c-0.116,0.115-0.242,0.219-0.376,0.309l0.761,0.762c0.322,0.321,0.745,0.479,1.168,0.479
			c0.429,0,0.854-0.161,1.172-0.479l11.125-10.619c0.397-0.396,0.597-0.914,0.603-1.435v-5.8
			C24.024,27.643,23.284,26.901,22.369,26.901z"/>
	</g>
</g>
<g id="Picture_x5F_Frame_x5F_iOS_2_">
	<path fill="#FFFFFF" d="M71.227,27.247v17.601H48.827V27.247H71.227 M72.027,26.447h-24v19.2h24V26.447L72.027,26.447z"/>
	<path fill="#FFFFFF" d="M67.227,36.047c0-1.076-0.715-1.978-1.692-2.281c0.477-0.905,0.345-2.048-0.417-2.81
		c-0.761-0.762-1.903-0.894-2.809-0.416c-0.303-0.979-1.205-1.692-2.281-1.692c-0.979,0-1.819,0.589-2.192,1.43
		c-0.836-0.382-1.855-0.265-2.587,0.386c-0.878,0.778-1.045,2.058-0.461,3.028c-1.114,0.208-1.959,1.182-1.959,2.355
		c0,1.076,0.714,1.979,1.692,2.282c-0.476,0.905-0.345,2.048,0.417,2.809c0.762,0.763,1.904,0.895,2.81,0.417
		c0.303,0.978,1.204,1.692,2.281,1.692c0.979,0,1.819-0.589,2.192-1.43c0.837,0.382,1.855,0.264,2.587-0.386
		c0.878-0.779,1.045-2.058,0.461-3.028C66.382,38.194,67.227,37.222,67.227,36.047z M64.666,31.408
		c0.609,0.609,0.673,1.558,0.201,2.243c-0.013,0-0.026-0.004-0.04-0.004h-1.6c-0.38,0-0.734,0.096-1.053,0.253
		c0.157-0.319,0.253-0.674,0.253-1.053v-1.601c0-0.014-0.004-0.026-0.004-0.04C63.108,30.733,64.057,30.799,64.666,31.408z
		 M60.835,39.608c-0.506-0.57-0.567-1.378-0.221-2.013c0.681,0.243,1.173,0.889,1.173,1.651v1.434L60.835,39.608z M59.008,39.555
		l-0.742,0.742v-1.05c0-0.74,0.462-1.373,1.111-1.633C59.653,38.256,59.532,39.03,59.008,39.555z M59.219,32.484
		c0.506,0.571,0.567,1.38,0.22,2.015c-0.68-0.244-1.172-0.89-1.172-1.651v-1.436L59.219,32.484z M61.045,32.54l0.742-0.743v1.051
		c0,0.74-0.462,1.373-1.111,1.632C60.4,33.837,60.521,33.064,61.045,32.54z M61.467,36.047c0-0.005,0.001-0.009,0.001-0.015
		c0.07,0.025,0.142,0.045,0.214,0.063c-0.069,0.014-0.138,0.028-0.205,0.049C61.475,36.111,61.467,36.08,61.467,36.047z
		 M60.864,36.424c-0.105,0.066-0.209,0.136-0.306,0.221c-0.081,0.072-0.147,0.154-0.216,0.234c-0.104-0.014-0.208-0.032-0.315-0.032
		c-0.119,0-0.232,0.02-0.345,0.035c-0.069-0.093-0.137-0.186-0.22-0.27c-0.083-0.083-0.177-0.151-0.269-0.22
		c0.016-0.113,0.034-0.227,0.034-0.346c0-0.129-0.019-0.253-0.037-0.377c0.105-0.066,0.209-0.135,0.306-0.221
		c0.081-0.072,0.146-0.154,0.215-0.233c0.104,0.014,0.208,0.032,0.316,0.032c0.119,0,0.232-0.02,0.346-0.035
		c0.068,0.092,0.136,0.185,0.219,0.27c0.083,0.083,0.177,0.15,0.269,0.219c-0.016,0.114-0.034,0.228-0.034,0.346
		C60.827,36.177,60.846,36.301,60.864,36.424z M61.062,37.066c0.006,0.012,0.013,0.023,0.018,0.034
		c-0.012-0.007-0.024-0.014-0.038-0.021C61.049,37.076,61.056,37.071,61.062,37.066z M59.008,37.065
		c0.004,0.004,0.006,0.008,0.009,0.012c-0.015,0.006-0.029,0.016-0.043,0.023c0.007-0.015,0.018-0.029,0.023-0.044
		C59.001,37.061,59.005,37.062,59.008,37.065z M58.587,36.047c0,0.005-0.001,0.01-0.001,0.015c-0.07-0.025-0.142-0.045-0.214-0.064
		c0.068-0.013,0.138-0.027,0.205-0.047C58.579,35.983,58.587,36.015,58.587,36.047z M58.992,35.027
		c-0.006-0.011-0.013-0.022-0.018-0.033c0.012,0.007,0.024,0.014,0.037,0.021C59.005,35.019,58.998,35.022,58.992,35.027z
		 M61.045,35.028c-0.004-0.003-0.006-0.007-0.008-0.011c0.015-0.006,0.029-0.016,0.043-0.023c-0.007,0.015-0.018,0.028-0.023,0.044
		C61.053,35.034,61.049,35.033,61.045,35.028z M58.43,35.33c-0.64,0.199-1.369,0.027-1.844-0.508l-0.475-0.535h0.715
		C57.541,34.287,58.155,34.717,58.43,35.33z M58.459,36.696c-0.259,0.649-0.892,1.11-1.633,1.11h-1.05l0.742-0.741
		C57.043,36.541,57.816,36.421,58.459,36.696z M61.623,36.765c0.641-0.2,1.37-0.028,1.845,0.507l0.476,0.535h-0.716
		C62.513,37.807,61.898,37.378,61.623,36.765z M61.594,35.398c0.259-0.649,0.892-1.111,1.633-1.111h1.049l-0.741,0.741
		C63.011,35.553,62.237,35.674,61.594,35.398z M60.027,29.487c0.862,0,1.578,0.624,1.728,1.442c-0.009,0.01-0.021,0.016-0.031,0.026
		l-1.131,1.131c-0.203,0.204-0.353,0.438-0.469,0.683c-0.1-0.252-0.236-0.494-0.426-0.709l-1.063-1.196
		c-0.077-0.088-0.164-0.159-0.252-0.231C58.635,29.966,59.273,29.487,60.027,29.487z M55.672,31.142
		c0.563-0.501,1.36-0.568,1.99-0.235c-0.016,0.113-0.035,0.225-0.035,0.341v1.601c0,0.379,0.096,0.733,0.253,1.053
		c-0.319-0.157-0.673-0.253-1.053-0.253h-1.284l-0.019-0.022C54.88,32.9,54.945,31.784,55.672,31.142z M53.466,36.047
		c0-0.97,0.79-1.76,1.761-1.76h0.028l0.853,0.961c0.321,0.359,0.727,0.599,1.16,0.716c-0.439,0.094-0.859,0.308-1.2,0.648
		l-1.132,1.132c-0.01,0.01-0.017,0.021-0.026,0.031C54.091,37.625,53.466,36.908,53.466,36.047z M55.388,40.686
		c-0.609-0.609-0.674-1.557-0.202-2.242c0.014,0,0.027,0.004,0.041,0.004h1.6c0.38,0,0.734-0.097,1.053-0.254
		c-0.157,0.319-0.253,0.675-0.253,1.054v1.601c0,0.014,0.004,0.026,0.004,0.039C56.946,41.359,55.997,41.296,55.388,40.686z
		 M60.027,42.607c-0.863,0-1.578-0.624-1.728-1.443c0.009-0.01,0.021-0.016,0.031-0.026l1.131-1.131
		c0.203-0.204,0.353-0.437,0.469-0.683c0.1,0.253,0.236,0.494,0.426,0.709l1.063,1.196c0.077,0.089,0.165,0.159,0.252,0.231
		C61.419,42.128,60.78,42.607,60.027,42.607z M64.382,40.952c-0.563,0.502-1.36,0.568-1.99,0.235
		c0.016-0.112,0.035-0.224,0.035-0.34v-1.601c0-0.379-0.096-0.734-0.253-1.054c0.319,0.157,0.673,0.254,1.053,0.254h1.284
		l0.019,0.021C65.174,39.194,65.108,40.31,64.382,40.952z M64.827,37.807h-0.028l-0.853-0.961c-0.321-0.359-0.726-0.599-1.16-0.717
		c0.439-0.093,0.859-0.307,1.2-0.646l1.131-1.132c0.01-0.011,0.017-0.022,0.026-0.031c0.82,0.149,1.444,0.865,1.444,1.728
		C66.587,37.018,65.797,37.807,64.827,37.807z"/>
</g>
</svg>
