<?xml version="1.0" encoding="utf-8"?>
<!-- Generator: Adobe Illustrator 16.0.0, SVG Export Plug-In . SVG Version: 6.00 Build 0)  -->
<!DOCTYPE svg PUBLIC "-//W3C//DTD SVG 1.1//EN" "http://www.w3.org/Graphics/SVG/1.1/DTD/svg11.dtd">
<svg version="1.1" id="Layer_1" xmlns="http://www.w3.org/2000/svg" xmlns:xlink="http://www.w3.org/1999/xlink" x="0px" y="0px"
	 width="264px" height="48px" viewBox="0 0 264 48" enable-background="new 0 0 264 48" xml:space="preserve">
<g display="none">
	<rect x="5.364" display="inline" fill="#707070" width="23.99" height="24"/>
	<rect x="29.365" display="inline" fill="#707070" width="23.989" height="24"/>
	<rect x="53.366" display="inline" fill="#707070" width="23.989" height="24"/>
	<rect x="77.367" display="inline" fill="#707070" width="23.989" height="24"/>
	<rect x="101.368" display="inline" fill="#707070" width="23.989" height="24"/>
	<rect x="125.369" display="inline" fill="#707070" width="23.99" height="24"/>
	<rect x="149.37" display="inline" fill="#707070" width="23.989" height="24"/>
	<rect x="173.371" display="inline" fill="#707070" width="23.99" height="24"/>
	<rect x="197.372" display="inline" fill="#707070" width="23.989" height="24"/>
	<rect x="221.373" display="inline" fill="#707070" width="23.99" height="24"/>
	<g display="inline">
		<line fill="none" stroke="#00A651" stroke-width="0.1" x1="245.363" y1="412.5" x2="245.363" y2="636.5"/>
		<line fill="none" stroke="#00A651" stroke-width="0.1" x1="221.373" y1="412.5" x2="221.373" y2="636.5"/>
		<line fill="none" stroke="#00A651" stroke-width="0.1" x1="221.361" y1="412.5" x2="221.361" y2="636.5"/>
		<line fill="none" stroke="#00A651" stroke-width="0.1" x1="197.372" y1="412.5" x2="197.372" y2="636.5"/>
		<line fill="none" stroke="#00A651" stroke-width="0.1" x1="197.361" y1="412.5" x2="197.361" y2="636.5"/>
		<line fill="none" stroke="#00A651" stroke-width="0.1" x1="173.371" y1="412.5" x2="173.371" y2="636.5"/>
		<line fill="none" stroke="#00A651" stroke-width="0.1" x1="173.359" y1="412.5" x2="173.359" y2="636.5"/>
		<line fill="none" stroke="#00A651" stroke-width="0.1" x1="149.37" y1="412.5" x2="149.37" y2="636.5"/>
		<line fill="none" stroke="#00A651" stroke-width="0.1" x1="149.359" y1="412.5" x2="149.359" y2="636.5"/>
		<line fill="none" stroke="#00A651" stroke-width="0.1" x1="125.369" y1="412.5" x2="125.369" y2="636.5"/>
		<line fill="none" stroke="#00A651" stroke-width="0.1" x1="125.357" y1="412.5" x2="125.357" y2="636.5"/>
		<line fill="none" stroke="#00A651" stroke-width="0.1" x1="101.368" y1="412.5" x2="101.368" y2="636.5"/>
		<line fill="none" stroke="#00A651" stroke-width="0.1" x1="101.356" y1="412.5" x2="101.356" y2="636.5"/>
		<line fill="none" stroke="#00A651" stroke-width="0.1" x1="77.367" y1="412.5" x2="77.367" y2="636.5"/>
		<line fill="none" stroke="#00A651" stroke-width="0.1" x1="77.355" y1="412.5" x2="77.355" y2="636.5"/>
		<line fill="none" stroke="#00A651" stroke-width="0.1" x1="53.366" y1="412.5" x2="53.366" y2="636.5"/>
		<line fill="none" stroke="#00A651" stroke-width="0.1" x1="53.354" y1="412.5" x2="53.354" y2="636.5"/>
		<line fill="none" stroke="#00A651" stroke-width="0.1" x1="29.365" y1="412.5" x2="29.365" y2="636.5"/>
		<line fill="none" stroke="#00A651" stroke-width="0.1" x1="29.354" y1="412.5" x2="29.354" y2="636.5"/>
		<line fill="none" stroke="#00A651" stroke-width="0.1" x1="5.364" y1="412.5" x2="5.364" y2="636.5"/>
		<line fill="none" stroke="#00A651" stroke-width="0.1" x1="-575.5" y1="24" x2="-135.5" y2="24"/>
		<line fill="none" stroke="#00A651" stroke-width="0.1" x1="-575.5" y1="0" x2="-135.5" y2="0"/>
	</g>
</g>
<g display="none">
	<rect x="5.364" y="24.03" display="inline" fill="#707070" width="23.99" height="24"/>
	<rect x="29.365" y="24.03" display="inline" fill="#707070" width="23.989" height="24"/>
	<rect x="53.366" y="24.03" display="inline" fill="#707070" width="23.989" height="24"/>
	<rect x="77.367" y="24.03" display="inline" fill="#707070" width="23.989" height="24"/>
	<rect x="101.368" y="24.03" display="inline" fill="#707070" width="23.989" height="24"/>
	<rect x="125.369" y="24.03" display="inline" fill="#707070" width="23.99" height="24"/>
	<rect x="149.37" y="24.03" display="inline" fill="#707070" width="23.989" height="24"/>
	<rect x="173.371" y="24.03" display="inline" fill="#707070" width="23.99" height="24"/>
	<rect x="197.372" y="24.03" display="inline" fill="#707070" width="23.989" height="24"/>
	<rect x="221.373" y="24.03" display="inline" fill="#707070" width="23.99" height="24"/>
	<g display="inline">
		<line fill="none" stroke="#00A651" stroke-width="0.1" x1="245.363" y1="436.53" x2="245.363" y2="660.53"/>
		<line fill="none" stroke="#00A651" stroke-width="0.1" x1="221.373" y1="436.53" x2="221.373" y2="660.53"/>
		<line fill="none" stroke="#00A651" stroke-width="0.1" x1="221.361" y1="436.53" x2="221.361" y2="660.53"/>
		<line fill="none" stroke="#00A651" stroke-width="0.1" x1="197.372" y1="436.53" x2="197.372" y2="660.53"/>
		<line fill="none" stroke="#00A651" stroke-width="0.1" x1="197.361" y1="436.53" x2="197.361" y2="660.53"/>
		<line fill="none" stroke="#00A651" stroke-width="0.1" x1="173.371" y1="436.53" x2="173.371" y2="660.53"/>
		<line fill="none" stroke="#00A651" stroke-width="0.1" x1="173.359" y1="436.53" x2="173.359" y2="660.53"/>
		<line fill="none" stroke="#00A651" stroke-width="0.1" x1="149.37" y1="436.53" x2="149.37" y2="660.53"/>
		<line fill="none" stroke="#00A651" stroke-width="0.1" x1="149.359" y1="436.53" x2="149.359" y2="660.53"/>
		<line fill="none" stroke="#00A651" stroke-width="0.1" x1="125.369" y1="436.53" x2="125.369" y2="660.53"/>
		<line fill="none" stroke="#00A651" stroke-width="0.1" x1="125.357" y1="436.53" x2="125.357" y2="660.53"/>
		<line fill="none" stroke="#00A651" stroke-width="0.1" x1="101.368" y1="436.53" x2="101.368" y2="660.53"/>
		<line fill="none" stroke="#00A651" stroke-width="0.1" x1="101.356" y1="436.53" x2="101.356" y2="660.53"/>
		<line fill="none" stroke="#00A651" stroke-width="0.1" x1="77.367" y1="436.53" x2="77.367" y2="660.53"/>
		<line fill="none" stroke="#00A651" stroke-width="0.1" x1="77.355" y1="436.53" x2="77.355" y2="660.53"/>
		<line fill="none" stroke="#00A651" stroke-width="0.1" x1="53.366" y1="436.53" x2="53.366" y2="660.53"/>
		<line fill="none" stroke="#00A651" stroke-width="0.1" x1="53.354" y1="436.53" x2="53.354" y2="660.53"/>
		<line fill="none" stroke="#00A651" stroke-width="0.1" x1="29.365" y1="436.53" x2="29.365" y2="660.53"/>
		<line fill="none" stroke="#00A651" stroke-width="0.1" x1="29.354" y1="436.53" x2="29.354" y2="660.53"/>
		<line fill="none" stroke="#00A651" stroke-width="0.1" x1="5.364" y1="436.53" x2="5.364" y2="660.53"/>
		<line fill="none" stroke="#00A651" stroke-width="0.1" x1="-575.5" y1="48.03" x2="-135.5" y2="48.03"/>
		<line fill="none" stroke="#00A651" stroke-width="0.1" x1="-575.5" y1="24.03" x2="-135.5" y2="24.03"/>
	</g>
</g>
<rect display="none" fill="#FFFFFF" width="24" height="24"/>
<g id="Price_x5F_Tags_1_">
	<path fill="#58C4CA" d="M18.884,1.704c0.47,0,0.853,0.382,0.853,0.853v5.964c-0.004,0.336-0.135,0.65-0.356,0.872L7.902,20.346
		C7.745,20.504,7.53,20.59,7.299,20.59c-0.23,0-0.444-0.086-0.602-0.244l-5.6-5.604c-0.159-0.158-0.246-0.373-0.245-0.605
		c0.001-0.229,0.087-0.443,0.254-0.609L12.208,2.06c0.239-0.229,0.553-0.356,0.881-0.356H18.884 M18.884,0.852H13.09
		c-0.578,0-1.1,0.231-1.484,0.605L0.495,12.936c-0.653,0.65-0.666,1.744,0,2.41l5.6,5.604c0.331,0.33,0.768,0.493,1.205,0.493
		c0.44,0,0.878-0.166,1.207-0.493l11.462-10.94c0.409-0.408,0.614-0.942,0.621-1.477V2.557C20.589,1.615,19.826,0.852,18.884,0.852
		L18.884,0.852z"/>
	<path fill="#58C4CA" d="M22.295,2.557h-0.854V3.41h0.854c0.469,0,0.852,0.382,0.852,0.852v5.965
		c-0.004,0.336-0.135,0.65-0.356,0.871L11.313,22.051c-0.159,0.158-0.373,0.246-0.604,0.246c-0.23,0-0.443-0.088-0.602-0.246
		l-0.742-0.744l-0.271,0.26c-0.114,0.113-0.239,0.216-0.372,0.306l0.783,0.783c0.331,0.331,0.768,0.493,1.204,0.493
		c0.44,0,0.879-0.166,1.208-0.493l11.462-10.94c0.409-0.409,0.615-0.942,0.621-1.477V4.262C24,3.32,23.237,2.557,22.295,2.557z"/>
	<path fill="#58C4CA" d="M15.899,4.262c0.705,0,1.279,0.574,1.279,1.279S16.604,6.82,15.899,6.82c-0.705,0-1.279-0.574-1.279-1.279
		S15.195,4.262,15.899,4.262 M15.899,3.41c-1.177,0-2.132,0.954-2.132,2.131s0.955,2.132,2.132,2.132
		c1.178,0,2.132-0.955,2.132-2.132S17.077,3.41,15.899,3.41L15.899,3.41z"/>
</g>
<g id="Camera_2_">
	<path fill="#58C4CA" d="M46.259,6.222c0,0-3.243,0-3.765,0c-0.467,0-0.698-0.267-0.698-0.267l-1.381-2.719l-0.002,0.005
		c-0.325-0.352-0.786-0.574-1.304-0.574h-6.186c-0.516,0-0.977,0.223-1.303,0.574l-0.001-0.005l-1.382,2.719
		c0,0-0.232,0.267-0.698,0.267c-0.521,0-3.765,0-3.765,0c-0.981,0-1.775,0.796-1.775,1.778v11.555c0,0.982,0.794,1.779,1.777,1.779
		h20.481c0.982,0,1.74-0.797,1.74-1.779V8C47.999,7.018,47.241,6.222,46.259,6.222z M47.11,19.555c0,0.49-0.36,0.889-0.852,0.889
		h-20.48c-0.491,0-0.891-0.397-0.891-0.889V8c0-0.49,0.398-0.889,0.891-0.889c0,0,3.359,0,4,0c0.639,0,1.009-0.444,1.009-0.444
		l1.489-2.822c0.174-0.187,0.402-0.289,0.648-0.289h6.186c0.246,0,0.478,0.103,0.649,0.289l1.489,2.822c0,0,0.37,0.444,1.01,0.444
		c0.639,0,4,0,4,0c0.49,0,0.852,0.398,0.852,0.889V19.555z"/>
	<path fill="#58C4CA" d="M35.999,8.888c-2.209,0-4,1.791-4,4s1.791,4,4,4s4-1.791,4-4S38.208,8.888,35.999,8.888z M35.999,16.178
		c-1.815,0-3.289-1.473-3.289-3.289c0-1.815,1.474-3.29,3.289-3.29s3.289,1.474,3.289,3.29S37.815,16.178,35.999,16.178z"/>
	<path fill="#58C4CA" d="M35.999,7.111c-3.19,0-5.776,2.587-5.776,5.778s2.586,5.777,5.776,5.777s5.778-2.586,5.778-5.777
		C41.778,9.698,39.19,7.111,35.999,7.111z M35.999,17.955c-2.797,0-5.065-2.27-5.065-5.066c0-2.799,2.27-5.066,5.065-5.066
		c2.799,0,5.067,2.269,5.067,5.066C41.067,15.686,38.798,17.955,35.999,17.955z"/>
</g>
<g id="Previous_3_">
	<polygon fill="#58C4CA" points="65.065,2.708 55.771,12 65.065,21.293 64.498,21.859 54.641,12 64.498,2.143 	"/>
</g>
<g id="Next_2_">
	<polygon fill="#58C4CA" points="78.934,2.708 88.227,12 78.934,21.293 79.498,21.859 89.358,12 79.498,2.144 	"/>
</g>
<g id="Search_3_">
	<path fill="#58C4CA" d="M112.531,15.099c1.203-1.546,1.928-3.484,1.928-5.596c0-5.036-4.084-9.12-9.121-9.12
		c-5.036,0-9.12,4.084-9.12,9.12c0,5.037,4.084,9.12,9.12,9.12c2.235,0,4.279-0.806,5.863-2.139l6.985,6.939l1.357-1.313
		L112.531,15.099z M105.337,17.855c-4.612,0-8.352-3.739-8.352-8.353c0-4.612,3.739-8.353,8.352-8.353
		c4.613,0,8.354,3.74,8.354,8.353C113.691,14.116,109.95,17.855,105.337,17.855z"/>
</g>
<g id="Map_1_">
	<path fill="#58C4CA" d="M135.836,3.558l-7.682-2.88l-8.16,3.06v20.228l8.16-3.061l7.682,2.88l8.16-3.06V0.498L135.836,3.558z
		 M128.635,1.883l6.721,2.52V22.58l-6.721-2.521V1.883z M120.953,4.403l6.722-2.52V20.06l-6.722,2.521V4.403L120.953,4.403z
		 M143.035,20.06l-6.721,2.521V4.403l6.721-2.52V20.06z"/>
</g>
<g id="Map_3_">
	<polygon fill="#58C4CA" points="127.683,24.9 120.006,27.777 120.006,47.996 127.683,45.117 	"/>
	<polygon fill="#58C4CA" points="135.359,27.419 128.643,24.9 128.643,45.117 135.359,47.637 	"/>
	<polygon fill="#58C4CA" points="136.32,27.419 136.32,47.637 143.996,44.758 143.996,24.54 	"/>
</g>
<g id="Filter_1_">
	<path fill="#58C4CA" d="M167.859,0.056h-23.613l9.418,9.417v9.693l4.777,4.777V9.473L167.859,0.056z M157.486,21.83l-2.865-2.867
		V9.268l-8.256-8.256h19.379l-8.258,8.256V21.83z"/>
</g>
<g id="Filter_5_">
	<path fill="#58C4CA" d="M167.869,24.035H144.15l9.459,9.459v9.736l4.801,4.8V33.494L167.869,24.035z"/>
</g>
<g id="Plus_4_">
	<path fill="#58C4CA" d="M180.008,0.767c6.193,0,11.234,5.039,11.234,11.232c0,6.194-5.041,11.233-11.234,11.233
		s-11.23-5.039-11.23-11.233C168.777,5.806,173.814,0.767,180.008,0.767 M180.008-0.001c-6.628,0-12,5.372-12,12s5.372,12,12,12
		c6.629,0,12.001-5.372,12.001-12S186.637-0.001,180.008-0.001L180.008-0.001z"/>
	<polygon fill="#58C4CA" points="187.209,11.52 180.488,11.52 180.488,4.799 179.529,4.799 179.529,11.52 172.808,11.52 
		172.808,12.479 179.529,12.479 179.529,19.2 180.488,19.2 180.488,12.479 187.209,12.479 	"/>
</g>
<g id="Search_4_">
	<path fill="#58C4CA" d="M119.617,45.158l-7.002-7.002c1.009-1.455,1.61-3.213,1.61-5.116c0-4.974-4.031-9.005-9.004-9.005
		s-9.005,4.031-9.005,9.005c0,4.972,4.032,9.004,9.005,9.004c2.039,0,3.917-0.688,5.428-1.832l6.957,6.956L119.617,45.158z
		 M98.114,33.04c0-3.921,3.188-7.108,7.108-7.108c3.921,0,7.108,3.188,7.108,7.108s-3.188,7.108-7.108,7.108
		S98.114,36.96,98.114,33.04z"/>
</g>
<g id="Keypad_1_">
	<path fill="#58C4CA" d="M195.365,18.049c1.429,0,2.592,1.162,2.592,2.591c0,1.43-1.163,2.594-2.592,2.594
		c-1.43,0-2.593-1.164-2.593-2.594C192.772,19.211,193.936,18.049,195.365,18.049 M195.365,17.28c-1.854,0-3.36,1.505-3.36,3.359
		c0,1.856,1.506,3.36,3.36,3.36s3.358-1.504,3.358-3.36C198.724,18.785,197.22,17.28,195.365,17.28L195.365,17.28z"/>
	<path fill="#58C4CA" d="M204.004,18.049c1.429,0,2.593,1.162,2.593,2.591c0,1.43-1.164,2.594-2.593,2.594
		c-1.43,0-2.592-1.164-2.592-2.594C201.412,19.211,202.574,18.049,204.004,18.049 M204.004,17.28c-1.854,0-3.36,1.505-3.36,3.359
		c0,1.856,1.507,3.36,3.36,3.36c1.855,0,3.359-1.504,3.359-3.36C207.365,18.785,205.861,17.28,204.004,17.28L204.004,17.28z"/>
	<path fill="#58C4CA" d="M212.644,18.049c1.429,0,2.595,1.162,2.595,2.591c0,1.43-1.166,2.594-2.595,2.594s-2.591-1.164-2.591-2.594
		C210.053,19.211,211.215,18.049,212.644,18.049 M212.644,17.28c-1.854,0-3.358,1.505-3.358,3.359c0,1.856,1.504,3.36,3.358,3.36
		c1.856,0,3.36-1.504,3.36-3.36C216.004,18.785,214.5,17.28,212.644,17.28L212.644,17.28z"/>
	<path fill="#58C4CA" d="M195.365,9.409c1.429,0,2.592,1.162,2.592,2.591c0,1.43-1.163,2.593-2.592,2.593
		c-1.43,0-2.593-1.163-2.593-2.593C192.772,10.571,193.936,9.409,195.365,9.409 M195.365,8.64c-1.854,0-3.36,1.505-3.36,3.36
		c0,1.856,1.506,3.36,3.36,3.36s3.358-1.504,3.358-3.36C198.724,10.145,197.22,8.64,195.365,8.64L195.365,8.64z"/>
	<path fill="#58C4CA" d="M204.004,9.409c1.429,0,2.593,1.162,2.593,2.591c0,1.43-1.164,2.593-2.593,2.593
		c-1.43,0-2.592-1.163-2.592-2.593C201.412,10.571,202.574,9.409,204.004,9.409 M204.004,8.64c-1.854,0-3.36,1.505-3.36,3.36
		c0,1.856,1.507,3.36,3.36,3.36c1.855,0,3.359-1.504,3.359-3.36C207.365,10.145,205.861,8.64,204.004,8.64L204.004,8.64z"/>
	<path fill="#58C4CA" d="M212.644,9.409c1.429,0,2.595,1.162,2.595,2.591c0,1.43-1.166,2.593-2.595,2.593s-2.591-1.163-2.591-2.593
		C210.053,10.571,211.215,9.409,212.644,9.409 M212.644,8.64c-1.854,0-3.358,1.505-3.358,3.36c0,1.856,1.504,3.36,3.358,3.36
		c1.856,0,3.36-1.504,3.36-3.36C216.004,10.145,214.5,8.64,212.644,8.64L212.644,8.64z"/>
	<path fill="#58C4CA" d="M195.365,0.769c1.429,0,2.592,1.163,2.592,2.592c0,1.43-1.163,2.593-2.592,2.593
		c-1.43,0-2.593-1.163-2.593-2.593C192.772,1.932,193.936,0.769,195.365,0.769 M195.365,0c-1.854,0-3.36,1.505-3.36,3.36
		s1.506,3.359,3.36,3.359s3.358-1.504,3.358-3.359S197.22,0,195.365,0L195.365,0z"/>
	<path fill="#58C4CA" d="M204.004,0.769c1.429,0,2.593,1.163,2.593,2.592c0,1.43-1.164,2.593-2.593,2.593
		c-1.43,0-2.592-1.163-2.592-2.593C201.412,1.932,202.574,0.769,204.004,0.769 M204.004,0c-1.854,0-3.36,1.505-3.36,3.36
		s1.507,3.359,3.36,3.359c1.855,0,3.359-1.504,3.359-3.359S205.861,0,204.004,0L204.004,0z"/>
	<path fill="#58C4CA" d="M212.644,0.769c1.429,0,2.595,1.163,2.595,2.592c0,1.43-1.166,2.593-2.595,2.593s-2.591-1.163-2.591-2.593
		C210.053,1.932,211.215,0.769,212.644,0.769 M212.644,0c-1.854,0-3.358,1.505-3.358,3.36s1.504,3.359,3.358,3.359
		c1.856,0,3.36-1.504,3.36-3.359S214.5,0,212.644,0L212.644,0z"/>
</g>
<g id="Keypad_3_">
	<path fill="#58C4CA" d="M195.365,41.313c-1.854,0-3.36,1.504-3.36,3.359s1.506,3.36,3.36,3.36s3.358-1.505,3.358-3.36
		S197.22,41.313,195.365,41.313L195.365,41.313z"/>
	<path fill="#58C4CA" d="M204.004,41.313c-1.854,0-3.36,1.504-3.36,3.359s1.507,3.36,3.36,3.36c1.855,0,3.359-1.505,3.359-3.36
		C207.365,42.816,205.861,41.313,204.004,41.313L204.004,41.313z"/>
	<path fill="#58C4CA" d="M212.644,41.313c-1.854,0-3.358,1.504-3.358,3.359s1.504,3.36,3.358,3.36c1.856,0,3.36-1.505,3.36-3.36
		S214.5,41.313,212.644,41.313L212.644,41.313z"/>
	<path fill="#58C4CA" d="M195.365,32.673c-1.854,0-3.36,1.504-3.36,3.36c0,1.855,1.506,3.359,3.36,3.359s3.358-1.504,3.358-3.359
		C198.724,34.177,197.22,32.673,195.365,32.673L195.365,32.673z"/>
	<path fill="#58C4CA" d="M204.004,32.673c-1.854,0-3.36,1.504-3.36,3.36c0,1.855,1.507,3.359,3.36,3.359
		c1.855,0,3.359-1.504,3.359-3.359C207.363,34.177,205.861,32.673,204.004,32.673L204.004,32.673z"/>
	<path fill="#58C4CA" d="M212.644,32.673c-1.854,0-3.358,1.504-3.358,3.36c0,1.855,1.504,3.359,3.358,3.359
		c1.856,0,3.36-1.504,3.36-3.359C216.004,34.177,214.5,32.673,212.644,32.673L212.644,32.673z"/>
	<path fill="#58C4CA" d="M195.365,24.033c-1.854,0-3.36,1.504-3.36,3.359s1.506,3.359,3.36,3.359s3.358-1.504,3.358-3.359
		S197.22,24.033,195.365,24.033L195.365,24.033z"/>
	<path fill="#58C4CA" d="M204.004,24.033c-1.854,0-3.36,1.504-3.36,3.359s1.507,3.359,3.36,3.359c1.855,0,3.359-1.504,3.359-3.359
		C207.365,25.537,205.861,24.033,204.004,24.033L204.004,24.033z"/>
	<path fill="#58C4CA" d="M212.644,24.033c-1.854,0-3.358,1.504-3.358,3.359s1.504,3.359,3.358,3.359c1.856,0,3.36-1.504,3.36-3.359
		S214.5,24.033,212.644,24.033L212.644,24.033z"/>
</g>
<g id="Camera_5_">
	<path fill="#58C4CA" d="M46.258,30.253c0,0-3.245,0-3.766,0c-0.466,0-0.698-0.269-0.698-0.269l-1.382-2.719l-0.002,0.006
		c-0.324-0.353-0.784-0.574-1.302-0.574h-6.186c-0.516,0-0.977,0.223-1.303,0.574l-0.002-0.006l-1.38,2.719
		c0,0-0.232,0.269-0.697,0.269c-0.521,0-3.765,0-3.765,0c-0.982,0-1.777,0.796-1.777,1.777v11.556c0,0.98,0.795,1.777,1.777,1.777
		h20.483c0.98,0,1.739-0.797,1.739-1.777V32.03C47.997,31.049,47.239,30.253,46.258,30.253z M35.997,42.697
		c-3.191,0-5.777-2.588-5.777-5.778s2.586-5.776,5.777-5.776s5.777,2.586,5.777,5.776C41.775,40.109,39.188,42.697,35.997,42.697z"
		/>
	<path fill="#58C4CA" d="M35.997,31.854c-2.797,0-5.066,2.269-5.066,5.065s2.27,5.067,5.066,5.067c2.799,0,5.067-2.271,5.067-5.067
		S38.796,31.854,35.997,31.854z M35.997,40.919c-2.208,0-4-1.791-4-4s1.792-4,4-4c2.21,0,4,1.791,4,4S38.207,40.919,35.997,40.919z"
		/>
	<circle fill="#58C4CA" cx="35.997" cy="36.919" r="3.289"/>
</g>
<g id="Price_x5F_Tags_5_">
	<path fill="#58C4CA" d="M22.299,26.925h-0.848v0.849h0.848c0.467,0,0.849,0.38,0.849,0.848v5.933
		c-0.004,0.334-0.135,0.646-0.354,0.866L11.377,46.316c-0.158,0.157-0.371,0.244-0.602,0.244c-0.229,0-0.441-0.086-0.598-0.244
		l-0.739-0.74l-0.268,0.258c-0.115,0.111-0.239,0.214-0.372,0.303l0.779,0.78c0.33,0.329,0.763,0.491,1.197,0.491
		c0.44,0,0.875-0.165,1.201-0.491l11.4-10.883c0.407-0.406,0.612-0.937,0.618-1.47v-5.943
		C23.995,27.685,23.236,26.925,22.299,26.925z"/>
	<path fill="#58C4CA" d="M18.908,25.229h-5.763c-0.575,0-1.093,0.232-1.476,0.603L0.617,37.247c-0.649,0.648-0.662,1.735,0,2.399
		l5.569,5.573c0.33,0.33,0.764,0.491,1.198,0.491c0.439,0,0.875-0.165,1.201-0.491l11.401-10.883
		c0.408-0.406,0.612-0.937,0.619-1.469v-5.944C20.604,25.988,19.846,25.229,18.908,25.229z M15.939,31.165
		c-0.701,0-1.273-0.571-1.273-1.272s0.572-1.271,1.273-1.271c0.702,0,1.271,0.57,1.271,1.271S16.641,31.165,15.939,31.165z"/>
	<path fill="#58C4CA" d="M22.299,26.925h-0.848v5.955c-0.009,0.779-0.316,1.51-0.879,2.071L9.184,45.819
		c-0.119,0.118-0.248,0.225-0.385,0.316l0.78,0.781c0.33,0.329,0.763,0.491,1.197,0.491c0.44,0,0.875-0.165,1.201-0.491l11.4-10.883
		c0.407-0.406,0.612-0.937,0.618-1.47v-5.943C23.995,27.685,23.236,26.925,22.299,26.925z"/>
</g>
<path fill="#58C4CA" d="M180.041,24.035c-6.604,0-11.957,5.354-11.957,11.957s5.353,11.957,11.957,11.957
	c6.604,0,11.957-5.354,11.957-11.957S186.646,24.035,180.041,24.035z M187.215,36.471h-6.695v6.695h-0.957v-6.695h-6.695v-0.957
	h6.695v-6.695h0.957v6.695h6.695V36.471z"/>
<g id="Square_x5F_Root_4_" display="none">
	<defs>
		<rect id="SVGID_1_" x="240.004" width="23.996" height="23.996"/>
	</defs>
	<use xlink:href="#SVGID_1_"  display="inline" overflow="visible" fill="#58C4CA"/>
	<clipPath id="SVGID_2_" display="inline">
		<use xlink:href="#SVGID_1_"  overflow="visible"/>
	</clipPath>
</g>
<polygon fill="#E5E5E5" points="229.112,20.374 236.271,3.14 234.399,2.811 227.824,18.639 223.626,10.936 219.057,11.983 
	219.705,13.171 222.445,12.541 226.712,20.374 "/>
<g id="Square_x5F_Root_1_" display="none">
	<defs>
		<rect id="SVGID_3_" x="240.004" y="24.035" width="23.996" height="23.996"/>
	</defs>
	<use xlink:href="#SVGID_3_"  display="inline" overflow="visible" fill="#58C4CA"/>
	<clipPath id="SVGID_4_" display="inline">
		<use xlink:href="#SVGID_3_"  overflow="visible"/>
	</clipPath>
</g>
<polygon fill="#58C4CA" points="229.112,44.408 236.271,27.175 234.399,26.846 227.824,42.674 223.626,34.971 219.057,36.019 
	219.705,37.206 222.445,36.576 226.712,44.408 "/>
<g id="Map_x5F_Location_3_">
	<defs>
		<rect id="SVGID_5_" x="240.004" y="24.035" width="23.996" height="23.996"/>
	</defs>
	<clipPath id="SVGID_6_">
		<use xlink:href="#SVGID_5_"  overflow="visible"/>
	</clipPath>
	<polygon clip-path="url(#SVGID_6_)" fill="#58C4CA" points="247.683,34.527 240.004,37.407 240.004,48.031 247.683,45.151 	"/>
	<polygon clip-path="url(#SVGID_6_)" fill="#58C4CA" points="256.321,37.048 256.321,47.671 264,44.792 264,34.168 	"/>
	<path clip-path="url(#SVGID_6_)" fill="#58C4CA" d="M252.481,24.035c-2.65,0-4.799,2.165-4.799,4.835
		c0,0.641,0.143,1.295,0.367,1.855c0.023,0.057,0.051,0.111,0.077,0.165l4.354,9.462l4.355-9.462
		c0.026-0.054,0.054-0.108,0.077-0.165l0.015-0.043c0.225-0.561,0.353-1.172,0.353-1.813
		C257.281,26.2,255.133,24.035,252.481,24.035z M252.481,30.754c-1.06,0-1.919-0.859-1.919-1.92c0-1.06,0.859-1.919,1.919-1.919
		c1.061,0,1.92,0.859,1.92,1.919C254.401,29.895,253.542,30.754,252.481,30.754z"/>
	<polygon clip-path="url(#SVGID_6_)" fill="#58C4CA" points="252.481,42.648 248.767,34.574 248.643,34.527 248.643,45.151 
		255.361,47.671 255.361,37.048 255.104,36.951 	"/>
</g>
<g id="Map_x5F_Location_2_">
	<defs>
		<rect id="SVGID_7_" x="240.004" width="23.996" height="23.996"/>
	</defs>
	<clipPath id="SVGID_8_">
		<use xlink:href="#SVGID_7_"  overflow="visible"/>
	</clipPath>
	<path clip-path="url(#SVGID_8_)" fill="#58C4CA" d="M252.481,0.768c2.224,0,4.032,1.825,4.032,4.067
		c0,0.521-0.101,1.035-0.309,1.561c-0.014,0.033-0.03,0.064-0.065,0.14l-3.658,7.946l-3.678-7.988
		c-0.015-0.033-0.031-0.065-0.041-0.088c-0.201-0.501-0.313-1.059-0.313-1.57C248.45,2.593,250.259,0.768,252.481,0.768 M252.481,0
		c-2.65,0-4.799,2.165-4.799,4.835c0,0.641,0.143,1.295,0.367,1.856c0.023,0.056,0.051,0.11,0.077,0.165l4.354,9.461l4.355-9.461
		c0.026-0.055,0.054-0.109,0.077-0.165l0.015-0.043c0.225-0.561,0.353-1.171,0.353-1.813C257.281,2.165,255.133,0,252.481,0
		L252.481,0z"/>
	<path clip-path="url(#SVGID_8_)" fill="#58C4CA" d="M255.842,13.192l-1.047-0.393l-0.401,0.875l0.968,0.363v8.573l-6.719-2.52
		v-8.573l1.13,0.425l-0.569-1.24l-1.041-0.39l-8.158,3.06v10.624l8.158-3.06l7.68,2.879L264,20.757V10.133L255.842,13.192z
		 M247.683,20.091l-6.719,2.52v-8.573l6.719-2.52V20.091z M263.04,20.091l-6.719,2.52v-8.573l6.719-2.52V20.091z"/>
	<path clip-path="url(#SVGID_8_)" fill="#58C4CA" d="M252.481,3.647c0.636,0,1.152,0.516,1.152,1.152
		c0,0.635-0.517,1.152-1.152,1.152c-0.635,0-1.151-0.517-1.151-1.152C251.33,4.164,251.847,3.647,252.481,3.647 M252.481,2.879
		c-1.06,0-1.919,0.86-1.919,1.92s0.859,1.919,1.919,1.919c1.061,0,1.92-0.859,1.92-1.919S253.542,2.879,252.481,2.879L252.481,2.879
		z"/>
</g>
</svg>
