<?xml version="1.0" encoding="utf-8"?>
<!-- Generator: Adobe Illustrator 16.0.0, SVG Export Plug-In . SVG Version: 6.00 Build 0)  -->
<!DOCTYPE svg PUBLIC "-//W3C//DTD SVG 1.1//EN" "http://www.w3.org/Graphics/SVG/1.1/DTD/svg11.dtd">
<svg version="1.1" id="Layer_1" xmlns="http://www.w3.org/2000/svg" xmlns:xlink="http://www.w3.org/1999/xlink" x="0px" y="0px"
	 width="195px" height="268px" viewBox="0 0 195 268" enable-background="new 0 0 195 268" xml:space="preserve">
<g id="Camera_5_" opacity="0.4">
	<defs>
		<rect id="SVGID_1_" x="1.177" y="134.706" opacity="0.4" width="171" height="133"/>
	</defs>
	<clipPath id="SVGID_2_">
		<use xlink:href="#SVGID_1_"  overflow="visible"/>
	</clipPath>
	<path clip-path="url(#SVGID_2_)" fill="#929292" d="M159.776,160.039c0,0-23.113,0-26.824,0c-3.315,0-4.973-1.904-4.973-1.904
		l-9.847-19.372l-0.012,0.037c-2.313-2.505-5.598-4.094-9.277-4.094H64.77c-3.674,0-6.958,1.589-9.277,4.094l-0.012-0.037
		l-9.847,19.372c0,0-1.657,1.904-4.973,1.904c-3.711,0-26.817,0-26.817,0c-7.001,0-12.667,5.672-12.667,12.666v82.334
		c0,6.994,5.666,12.666,12.667,12.666h145.933c6.995,0,12.4-5.672,12.4-12.666v-82.334
		C172.177,165.711,166.771,160.039,159.776,160.039z M86.677,248.705c-22.735,0-41.167-18.43-41.167-41.166
		s18.432-41.166,41.167-41.166s41.167,18.43,41.167,41.166S109.412,248.705,86.677,248.705z"/>
	<path clip-path="url(#SVGID_2_)" fill="#929292" d="M86.677,171.438c-19.934,0-36.102,16.168-36.102,36.102
		s16.168,36.102,36.102,36.102s36.102-16.168,36.102-36.102S106.61,171.438,86.677,171.438z M86.677,236.039
		c-15.74,0-28.5-12.76-28.5-28.5s12.76-28.5,28.5-28.5s28.5,12.76,28.5,28.5S102.417,236.039,86.677,236.039z"/>
	<path clip-path="url(#SVGID_2_)" fill="#929292" d="M86.677,184.104c-12.938,0-23.435,10.496-23.435,23.436
		s10.496,23.434,23.435,23.434s23.435-10.494,23.435-23.434S99.615,184.104,86.677,184.104z"/>
</g>
<g opacity="0.4">
	<path fill="#929292" d="M112.374,128.581H99.999l-3.586-11.215h-17.93l-3.551,11.215H62.628l18.352-50.414h13.465L112.374,128.581z
		 M93.812,108.647l-5.414-16.945c-0.399-1.266-0.681-2.777-0.844-4.535h-0.281c-0.118,1.477-0.41,2.941-0.879,4.395l-5.484,17.086
		H93.812z M89.171,71.698v1.723h-4.922v-4.359c2.789-0.164,4.184-0.914,4.184-2.25c0-1.289-0.962-1.934-2.883-1.934
		c-0.892,0-1.806,0.118-2.742,0.352v-4.113c2.109-0.141,3.457-0.211,4.043-0.211c4.898,0,7.348,1.852,7.348,5.555
		C94.198,69.366,92.522,71.113,89.171,71.698z"/>
	<path fill="#929292" d="M152.347,128.581h-11.074v-20.004c0-5.578-1.992-8.367-5.977-8.367c-1.922,0-3.504,0.738-4.746,2.215
		c-1.243,1.477-1.863,3.352-1.863,5.625v20.531h-11.109v-36h11.109v5.695h0.141c2.648-4.382,6.504-6.574,11.566-6.574
		c7.968,0,11.953,4.945,11.953,14.836V128.581z"/>
	<path fill="#929292" d="M195.694,128.581H184.62V108.12c0-5.273-1.922-7.91-5.766-7.91c-1.969,0-3.563,0.738-4.781,2.215
		s-1.828,3.352-1.828,5.625v20.531h-11.109V75.284h11.109v22.641h0.141c2.719-4.148,6.41-6.223,11.074-6.223
		c8.156,0,12.234,4.922,12.234,14.766V128.581z"/>
</g>
<g opacity="0.4">
	<path fill="#929292" d="M40.083,52.946c-3.68,1.781-8.485,2.672-14.414,2.672c-7.734,0-13.816-2.273-18.246-6.82
		c-4.43-4.547-6.645-10.605-6.645-18.176c0-8.063,2.49-14.602,7.471-19.617c4.98-5.015,11.443-7.523,19.389-7.523
		c4.922,0,9.07,0.621,12.445,1.863v10.934c-3.375-2.016-7.219-3.023-11.531-3.023c-4.734,0-8.555,1.489-11.461,4.465
		c-2.906,2.977-4.359,7.008-4.359,12.094c0,4.875,1.371,8.76,4.113,11.654c2.742,2.895,6.434,4.342,11.074,4.342
		c4.43,0,8.484-1.078,12.164-3.234V52.946z"/>
	<path fill="#929292" d="M82.342,54.739H71.267V34.278c0-5.273-1.922-7.91-5.766-7.91c-1.969,0-3.563,0.738-4.781,2.215
		c-1.219,1.477-1.828,3.352-1.828,5.625v20.531H47.783V1.442h11.109v22.641h0.141c2.719-4.148,6.41-6.223,11.074-6.223
		c8.157,0,12.235,4.922,12.235,14.766V54.739z"/>
	<path fill="#929292" d="M125.338,54.739h-11.074v-5.484h-0.176c-2.742,4.242-6.411,6.363-11.004,6.363
		c-8.345,0-12.516-5.05-12.516-15.152V18.739h11.074v20.742c0,5.086,2.016,7.629,6.047,7.629c1.991,0,3.586-0.697,4.781-2.092
		c1.195-1.394,1.793-3.287,1.793-5.678V18.739h11.074V54.739z M107.479,68.485c-1.57,0-2.865-0.469-3.885-1.406
		c-1.02-0.938-1.529-2.074-1.529-3.41c0-1.406,0.515-2.549,1.547-3.428c1.031-0.879,2.32-1.318,3.867-1.318
		c1.569,0,2.853,0.445,3.85,1.336c0.996,0.891,1.494,2.027,1.494,3.41c0,1.383-0.498,2.531-1.494,3.445
		C110.331,68.028,109.048,68.485,107.479,68.485z"/>
	<path fill="#929292" d="M145.939,50.555h-0.141v20.742h-11.109V18.739h11.109v5.414h0.141c2.742-4.195,6.597-6.293,11.566-6.293
		c4.663,0,8.267,1.6,10.811,4.799c2.543,3.199,3.814,7.553,3.814,13.061c0,6-1.482,10.816-4.447,14.449
		c-2.966,3.633-6.908,5.449-11.83,5.449C151.517,55.618,148.212,53.93,145.939,50.555z M145.623,35.79v2.883
		c0,2.484,0.655,4.512,1.969,6.082c1.313,1.57,3.035,2.355,5.168,2.355c2.531,0,4.494-0.979,5.889-2.936
		c1.394-1.957,2.092-4.729,2.092-8.314c0-6.328-2.461-9.492-7.383-9.492c-2.273,0-4.131,0.861-5.572,2.584
		S145.623,32.954,145.623,35.79z"/>
</g>
</svg>
