<?xml version="1.0" encoding="utf-8"?>
<!-- Generator: Adobe Illustrator 16.0.0, SVG Export Plug-In . SVG Version: 6.00 Build 0)  -->
<!DOCTYPE svg PUBLIC "-//W3C//DTD SVG 1.1//EN" "http://www.w3.org/Graphics/SVG/1.1/DTD/svg11.dtd">
<svg version="1.1" id="Layer_1" xmlns="http://www.w3.org/2000/svg" xmlns:xlink="http://www.w3.org/1999/xlink" x="0px" y="0px"
	 width="278px" height="104px" viewBox="0 0 278 104" enable-background="new 0 0 278 104" xml:space="preserve">
<g>
	<g>
		<path display="none" fill="#FFFFFF" d="M39.167,50.632v41.45c0,6.256-5.051,11.305-11.305,11.305H12.788l-2.261-7.535h17.335
			c2.11,0,3.768-1.659,3.768-3.77v-3.768H20.326c-6.256,0-11.306-5.049-11.306-11.305V61.936c0-6.255,5.05-11.303,11.306-11.303
			H39.167z M16.557,77.01c0,2.109,1.657,3.767,3.769,3.767h11.303V58.169H20.326c-2.112,0-3.769,1.658-3.769,3.767V77.01z"/>
		<path fill="#FFFFFF" d="M80.613,43.095c-2.109,0-3.769,1.659-3.769,3.769v41.451H69.31V46.863c0-2.109-1.811-3.769-3.77-3.769
			h-7.536c-2.111,0-3.77,1.659-3.77,3.769v41.451h-7.536V46.863c0-6.256,5.05-11.304,11.306-11.304h7.536
			c2.865,0,5.502,1.131,7.536,2.865c1.961-1.734,4.598-2.865,7.538-2.865h7.537c6.256,0,11.305,5.048,11.305,11.304v41.451h-7.536
			V46.863c0-2.109-1.66-3.769-3.769-3.769H80.613z"/>
		<path fill="#FFFFFF" d="M192.141,50.632c6.255,0,11.302,5.048,11.302,11.303V77.01c0,6.256-5.047,11.305-11.302,11.305h-18.842
			V35.559h7.534v15.073H192.141z M195.908,61.936c0-2.108-1.659-3.767-3.768-3.767h-11.308v22.607h11.308
			c2.108,0,3.768-1.657,3.768-3.767V61.936z"/>
		<path fill="#FFFFFF" d="M210.223,35.559h7.537v7.536h-7.537V35.559z M210.223,50.632h7.537v37.682h-7.537V50.632z"/>
		<path fill="#FFFFFF" d="M225.294,35.559h7.536V77.01c0,2.109,1.658,3.767,3.77,3.767h4.522l-2.264,7.538H236.6
			c-6.256,0-11.306-5.049-11.306-11.305V35.559z"/>
		<path fill="#FFFFFF" d="M263.727,50.632c6.256,0,11.306,5.048,11.306,11.303v11.306h-22.611v3.769
			c0,2.109,1.659,3.767,3.768,3.767h17.335l-2.261,7.538h-15.074c-6.255,0-11.306-5.049-11.306-11.305V61.936
			c0-6.255,5.051-11.303,11.306-11.303H263.727z M256.188,58.169c-2.108,0-3.768,1.658-3.768,3.767v3.769h15.074v-3.769
			c0-2.108-1.659-3.767-3.769-3.767H256.188z"/>
		<path fill="#FFFFFF" d="M155.045,17.632h-37.883c-6.07,0-10.99,4.92-10.99,10.99V92.39c0,6.069,4.92,10.989,10.99,10.989h37.883
			c6.07,0,10.99-4.92,10.99-10.989V28.622C166.035,22.552,161.115,17.632,155.045,17.632z M130.494,21.429h11.22
			c0.403,0,0.73,0.327,0.73,0.729s-0.327,0.729-0.73,0.729h-11.22c-0.403,0-0.729-0.327-0.729-0.729S130.091,21.429,130.494,21.429z
			 M136.104,100.168c-2.042,0-3.697-1.655-3.697-3.695c0-2.042,1.655-3.697,3.697-3.697c2.041,0,3.697,1.655,3.697,3.697
			C139.801,98.513,138.145,100.168,136.104,100.168z M158.185,85.142c0,1.75-1.407,3.173-3.14,3.173h-37.883
			c-1.732,0-3.141-1.423-3.141-3.173V30.224c0-1.75,1.409-3.171,3.141-3.171h37.883c1.732,0,3.14,1.422,3.14,3.171V85.142z"/>
	</g>
	<path fill="#FFFFFF" d="M139.871,35.564h-7.535c-6.256,0-11.305,5.049-11.305,11.305v15.073c0,5.495,3.898,10.057,9.087,11.083
		l5.986,12.457l5.984-12.457c5.189-1.026,9.088-5.588,9.088-11.083V46.869C151.176,40.613,146.126,35.564,139.871,35.564z
		 M143.64,61.942c0,2.109-1.657,3.768-3.769,3.768h-7.535c-2.111,0-3.77-1.658-3.77-3.768V46.869c0-2.111,1.659-3.768,3.77-3.768
		h7.535c2.111,0,3.769,1.657,3.769,3.768V61.942z"/>
	<g>
		<g>
			<path fill="#FFFFFF" d="M40.054,8.65L28.886,5.698l-1.477,3.298c2.203,0.942,4.038,2.752,5.538,5.421
				c1.586,2.825,2.028,5.692,1.343,8.601c-0.682,2.906-2.38,5.305-5.083,7.19l-3.874,2.727c-0.459,0.326-1.009,0.881-1.647,1.664
				c-0.638,0.785-0.811,1.438-0.517,1.96c0.401,0.715,1.456,0.592,3.166-0.366c0.75-0.423,1.843-1.214,3.277-2.376
				c1.435-1.161,2.536-1.958,3.305-2.389c2.754-1.547,5.273-2.096,7.555-1.647c1.32,0.261,2.483,0.842,3.648,1.768
				c0.234,0.185,0.251,0.21,0.378,0.321c0.314,0.273,0.459,0.425,0.932,0.805c0.656,0.527,1.291,0.85,1.291,0.85L40.054,8.65z"/>
			<path fill="#FFFFFF" d="M25.824,27.014c1.762-0.989,2.79-2.387,3.083-4.193c0.292-1.804-0.129-3.717-1.266-5.74
				c-0.979-1.744-2.347-2.925-4.105-3.543c-1.76-0.618-3.44-0.478-5.044,0.425c-1.727,0.97-2.792,2.37-3.196,4.205
				c-0.404,1.832-0.116,3.621,0.863,5.363c1.097,1.955,2.534,3.275,4.31,3.964C22.243,28.183,24.028,28.023,25.824,27.014z"/>
			<path fill="#FFFFFF" d="M34.301,36.224c-0.558,0.313-1.491,1.021-2.799,2.122c-1.308,1.103-2.372,1.884-3.191,2.344
				c-3.976,2.234-6.806,1.852-8.491-1.149c-0.52-0.923-0.524-2.022-0.012-3.295c0.512-1.274,1.364-2.465,2.555-3.57
				c-4.98,0.365-8.752-1.736-11.319-6.304c-1.646-2.93-1.997-5.944-1.054-9.044c0.943-3.098,2.914-5.491,5.914-7.175
				c2.756-1.548,5.227-2.19,7.416-1.93l0.701-3.787l-5.936-1.59L2.104,18.818l5.847,21.819l21.825,5.844l10.609-10.604
				C39.045,34.582,37.017,34.697,34.301,36.224z"/>
		</g>
		<g>
			<path fill="#FFFFFF" d="M28.642,3.92l1.118-2.557l0.219-0.5l-3.9-0.973l-0.086,0.464l-0.492,2.663
				C26.595,3.161,27.654,3.466,28.642,3.92z"/>
		</g>
		<g>
			<path fill="#FFFFFF" d="M26.979,6.492l0.607-1.391l0.12-0.271l-2.123-0.529l-0.047,0.251l-0.268,1.452
				C25.866,6.079,26.442,6.245,26.979,6.492z"/>
		</g>
		<g>
			<path fill="#FFFFFF" d="M26.041,8.412l0.387-0.885l0.075-0.174l-1.349-0.337l-0.031,0.161L24.953,8.1
				C25.332,8.149,25.698,8.255,26.041,8.412z"/>
		</g>
	</g>
	<g>
		<path fill="#FFFFFF" d="M165.891,9.306c4.434,0,8.038,3.68,8.038,8.205c0,0.023-0.002,0.047-0.002,0.07h1.488
			c0-0.023,0.003-0.047,0.003-0.07c0-5.371-4.266-9.723-9.527-9.723V9.306z"/>
		<path fill="#FFFFFF" d="M165.916,6.562c5.903,0.014,10.702,4.919,10.702,10.947c0,0.024-0.002,0.047-0.002,0.071h1.488
			c0-0.024,0.003-0.047,0.003-0.071c0-6.878-5.456-12.451-12.191-12.466V6.562z"/>
		<path fill="#FFFFFF" d="M165.891,3.727c7.447,0,13.507,6.184,13.507,13.784c0,0.023-0.005,0.047-0.005,0.07h1.488
			c0-0.023,0.004-0.047,0.004-0.07c0-8.452-6.711-15.301-14.994-15.301V3.727z"/>
	</g>
</g>
</svg>
