<?xml version="1.0" encoding="utf-8"?>
<!-- Generator: Adobe Illustrator 16.0.0, SVG Export Plug-In . SVG Version: 6.00 Build 0)  -->
<!DOCTYPE svg PUBLIC "-//W3C//DTD SVG 1.1//EN" "http://www.w3.org/Graphics/SVG/1.1/DTD/svg11.dtd">
<svg version="1.1" id="Layer_1" xmlns="http://www.w3.org/2000/svg" xmlns:xlink="http://www.w3.org/1999/xlink" x="0px" y="0px"
	 width="100px" height="37px" viewBox="0 0 100 37" enable-background="new 0 0 100 37" xml:space="preserve">
<g>
	<g>
		<path display="none" fill="#5AC3CA" d="M15.163,18.144V32.82c0,2.215-1.788,4.002-4.003,4.002H5.823l-0.8-2.668h6.138
			c0.748,0,1.334-0.586,1.334-1.334v-1.334H8.492c-2.215,0-4.003-1.789-4.003-4.002v-5.338c0-2.217,1.788-4.003,4.003-4.003H15.163z
			 M7.157,27.484c0,0.746,0.587,1.332,1.335,1.332h4.002v-8.004H8.492c-0.748,0-1.335,0.586-1.335,1.334V27.484z"/>
		<path fill="#5AC3CA" d="M29.838,15.475c-0.747,0-1.334,0.587-1.334,1.334v14.677h-2.667V16.809c0-0.747-0.641-1.334-1.335-1.334
			h-2.668c-0.748,0-1.335,0.587-1.335,1.334v14.677H17.83V16.809c0-2.215,1.788-4.003,4.003-4.003h2.668
			c1.015,0,1.948,0.401,2.668,1.015c0.694-0.614,1.629-1.015,2.669-1.015h2.669c2.215,0,4.002,1.788,4.002,4.003v14.677h-2.668
			V16.809c0-0.747-0.587-1.334-1.334-1.334H29.838z"/>
		<path fill="#5AC3CA" d="M69.328,18.144c2.214,0,4.001,1.786,4.001,4.003v5.338c0,2.213-1.787,4.002-4.001,4.002h-6.672v-18.68
			h2.667v5.337H69.328z M70.662,22.146c0-0.748-0.588-1.334-1.334-1.334h-4.005v8.004h4.005c0.746,0,1.334-0.586,1.334-1.332V22.146
			z"/>
		<path fill="#5AC3CA" d="M75.729,12.806h2.669v2.668h-2.669V12.806z M75.729,18.144h2.669v13.343h-2.669V18.144z"/>
		<path fill="#5AC3CA" d="M81.066,12.806h2.669v14.678c0,0.746,0.587,1.332,1.335,1.332h1.601l-0.802,2.67H85.07
			c-2.216,0-4.004-1.789-4.004-4.002V12.806z"/>
		<path fill="#5AC3CA" d="M94.675,18.144c2.215,0,4.003,1.786,4.003,4.003v4.002h-8.006v1.336c0,0.746,0.587,1.332,1.333,1.332
			h6.139l-0.801,2.67h-5.338c-2.214,0-4.002-1.789-4.002-4.002v-5.338c0-2.217,1.788-4.003,4.002-4.003H94.675z M92.005,20.813
			c-0.746,0-1.333,0.586-1.333,1.334v1.334h5.337v-1.334c0-0.748-0.587-1.334-1.334-1.334H92.005z"/>
		<path fill="#5AC3CA" d="M56.193,6.459H42.779c-2.149,0-3.892,1.742-3.892,3.891v22.578c0,2.15,1.743,3.893,3.892,3.893h13.414
			c2.148,0,3.892-1.742,3.892-3.893V10.35C60.085,8.201,58.342,6.459,56.193,6.459z M47.5,7.803h3.973
			c0.143,0,0.259,0.116,0.259,0.259S51.615,8.32,51.473,8.32H47.5c-0.143,0-0.258-0.116-0.258-0.258S47.357,7.803,47.5,7.803z
			 M49.486,35.684c-0.723,0-1.309-0.586-1.309-1.309s0.586-1.311,1.309-1.311c0.723,0,1.309,0.588,1.309,1.311
			S50.209,35.684,49.486,35.684z M57.305,30.363c0,0.619-0.499,1.123-1.111,1.123H42.779c-0.613,0-1.112-0.504-1.112-1.123V10.917
			c0-0.62,0.499-1.123,1.112-1.123h13.414c0.612,0,1.111,0.503,1.111,1.123V30.363z"/>
	</g>
	<path fill="#2B769D" d="M50.82,12.808h-2.668c-2.215,0-4.003,1.788-4.003,4.003v5.337c0,1.945,1.38,3.561,3.217,3.924l2.12,4.41
		l2.119-4.41c1.837-0.363,3.218-1.979,3.218-3.924v-5.337C54.823,14.596,53.035,12.808,50.82,12.808z M52.154,22.148
		c0,0.746-0.586,1.334-1.334,1.334h-2.668c-0.748,0-1.335-0.588-1.335-1.334v-5.337c0-0.747,0.587-1.334,1.335-1.334h2.668
		c0.748,0,1.334,0.587,1.334,1.334V22.148z"/>
	<g>
		<g>
			<path fill="#2B769D" d="M15.477,3.278l-3.954-1.045L11,3.401c0.78,0.334,1.429,0.975,1.96,1.919c0.562,1,0.718,2.016,0.476,3.045
				c-0.242,1.029-0.843,1.878-1.8,2.546l-1.372,0.965c-0.163,0.115-0.357,0.312-0.583,0.589s-0.288,0.508-0.184,0.694
				c0.143,0.253,0.516,0.209,1.122-0.129c0.265-0.15,0.652-0.43,1.16-0.842c0.508-0.411,0.898-0.693,1.17-0.846
				c0.975-0.548,1.867-0.742,2.675-0.583c0.467,0.093,0.879,0.298,1.292,0.626C17,11.451,17.005,11.46,17.051,11.5
				c0.111,0.097,0.162,0.151,0.33,0.285c0.232,0.187,0.458,0.301,0.458,0.301L15.477,3.278z"/>
			<path fill="#5AC3CA" d="M10.439,9.781c0.623-0.35,0.987-0.845,1.091-1.485c0.104-0.639-0.045-1.316-0.448-2.032
				c-0.346-0.618-0.831-1.036-1.453-1.254C9.006,4.79,8.411,4.84,7.842,5.16C7.231,5.502,6.854,5.999,6.711,6.648
				C6.568,7.297,6.669,7.93,7.017,8.547c0.388,0.692,0.897,1.16,1.525,1.404C9.171,10.195,9.803,10.138,10.439,9.781z"/>
			<path fill="#5AC3CA" d="M13.44,13.042c-0.198,0.11-0.528,0.361-0.992,0.751c-0.462,0.39-0.839,0.667-1.129,0.83
				c-1.408,0.791-2.41,0.656-3.006-0.407c-0.185-0.327-0.186-0.716-0.004-1.167c0.181-0.452,0.482-0.873,0.905-1.264
				C7.45,11.915,6.114,11.17,5.205,9.553C4.623,8.515,4.499,7.448,4.832,6.35C5.166,5.254,5.864,4.406,6.926,3.81
				c0.976-0.548,1.851-0.775,2.625-0.683L9.8,1.786L7.698,1.222L2.04,6.879l2.07,7.726l7.728,2.069l3.756-3.755
				C15.12,12.46,14.402,12.501,13.44,13.042z"/>
		</g>
		<g>
			<path fill="#C0C0C0" d="M11.437,1.604l0.396-0.905l0.078-0.177l-1.381-0.344l-0.031,0.165l-0.174,0.943
				C10.712,1.335,11.086,1.443,11.437,1.604z"/>
		</g>
		<g>
			<path fill="#C0C0C0" d="M10.848,2.514l0.215-0.492l0.043-0.096l-0.752-0.188l-0.017,0.089l-0.094,0.514
				C10.454,2.368,10.658,2.427,10.848,2.514z"/>
		</g>
		<g>
			<path fill="#C0C0C0" d="M10.516,3.194l0.137-0.313l0.027-0.062L10.201,2.7L10.19,2.757l-0.06,0.326
				C10.264,3.101,10.395,3.138,10.516,3.194z"/>
		</g>
	</g>
	<g>
		<path fill="#5AC3CA" d="M60.033,3.511c1.57,0,2.847,1.303,2.847,2.905c0,0.008-0.001,0.017-0.001,0.025h0.526
			c0-0.008,0.001-0.017,0.001-0.025c0-1.902-1.51-3.443-3.373-3.443V3.511z"/>
		<path fill="#5AC3CA" d="M60.043,2.539c2.09,0.005,3.788,1.742,3.788,3.876c0,0.008,0,0.017,0,0.025h0.527
			c0-0.009,0.001-0.017,0.001-0.025c0-2.436-1.933-4.409-4.316-4.414V2.539z"/>
		<path fill="#5AC3CA" d="M60.033,1.535c2.637,0,4.782,2.19,4.782,4.881c0,0.008-0.001,0.017-0.001,0.025h0.526
			c0-0.008,0.001-0.017,0.001-0.025c0-2.993-2.376-5.418-5.309-5.418V1.535z"/>
	</g>
</g>
</svg>
